<svg xmlns="http://www.w3.org/2000/svg" fill="none" viewBox="0 0 24 24">
  <path stroke="currentColor" d="M16.109 1.982c-.856 2.01 1.488 3.627.698 5.039-.683 1.218-2.696.529-3.948.78-1.179.238-1.623 1.435-2.628 1.398-1.004-.037-1.764-1.292-2.752-.335-.98.947-.31 2.708 1.326 3.266 2.458.838 3.36-1.159 4.551-.96 1.318.22 1.153 1.525 2.083 2.12.93.596 2.158.261 2.604 1.303.446 1.041-1.283 3.378-2.292 4.25-1.542 1.333-1.175 2.269-1.316 3.97M3.796 4.276c.561.183 1.826.12 1.737 1.161C5.42 6.74 3.246 8.6 3.796 9.934c.55 1.335 1.737.866 3.911 2.175C9.572 13.23 9.377 13.846 9.924 15c.57 1.203 1.87 1.042 2.205 2.196.334 1.153.003 2.186.202 3.25.216 1.158.566 2.069.69 2.59m9.886-11.13c0 6.023-4.883 10.906-10.907 10.906S1.093 17.93 1.093 11.907C1.093 5.883 5.976 1 12 1s10.907 4.883 10.907 10.907Z"/>
</svg>
