<svg xmlns="http://www.w3.org/2000/svg" fill="none" viewBox="0 0 563 73">
  <path fill="currentColor" d="M.01 1.13h35.86c36.52 0 44.9 18.36 44.9 32.57v2.82c0 14.68-6.4 34.64-44.81 34.64H0V1.13h.01ZM19.4 55.54h15.63c23.53 0 25.6-11.48 25.6-19.39v-.56c0-7.81-2.26-18.92-25.6-18.92H19.4v38.88-.01ZM134.62 0c32.76 0 42.08 19.3 42.08 34.55v2.82c0 15.06-9.32 34.92-42.08 34.92h-4.14c-32.76 0-42.08-19.86-42.08-34.92v-2.82C88.4 19.3 97.72 0 130.48 0h4.14Zm-2.07 16.01c-19.58 0-24 10.64-24 19.3v1.32c0 8.47 4.71 19.58 24 19.58s24-11.11 24-19.58v-1.32c0-8.66-4.24-19.3-24-19.3Zm52.24-14.88h25.79l22.31 47.44 22.97-47.44h24.19v70.03h-18.92V25.32l-21.27 45.84H224.7l-21.27-45.84v45.84h-18.64V1.13ZM348.3 58.18h-37.84l-5.65 12.99h-19.48l31.06-70.03h25.98l32.48 70.03h-20.8l-5.74-12.99h-.01Zm-19.2-42.93-12.33 28.52h25.04L329.1 15.25Zm70.31 55.92h-19.39V1.13h19.39v70.04Zm27.77-45.37v45.37h-18.92V1.13h19.96l40.95 45.09V1.13H488v70.03h-19.02l-41.79-45.37-.01.01ZM561.51 1.13v15.25h-44.99v11.39h43.58v15.81h-43.58v12.14h45.56v15.44h-64.67V1.13h64.1Z"/>
</svg>
