<svg xmlns="http://www.w3.org/2000/svg" fill="none" viewBox="0 0 889 188">
  <path fill="currentColor" d="M163.429 23.425V3H0v20.425h163.429Zm0 161.575v-81.714H0V185h163.429Z"/>
  <path fill="currentColor" d="M81.714 23.057H0v40.861h81.714v-40.86Zm82.457 40.114H82.457v40.861h81.714v-40.86ZM283.671 0c32.5 0 61.75 14.5 68.75 49.5h-24.75c-6.25-21-26.75-28-45-28-14 0-38.5 6.25-38.5 26.5 0 16 12.75 24 29.5 27.75l21 4.75c27.75 6 61 16.5 61 53 0 35.5-33 54.25-69 54.25-42.75 0-69.75-23.25-74.5-59.5h25c4.75 25 22.25 38 50 38 26.75 0 42.25-12.75 42.25-30.5 0-19-16.25-27-39-32l-22.5-4.75c-24.75-5.5-49.75-19.25-49.75-49.5 0-34.5 36.25-49.5 65.5-49.5Zm97.598 16.25h22.75V50h25.5v18.25h-25.5V148c0 14 1 17.5 14 17.5h11.5v19h-16.5c-25.75 0-31.75-5.75-31.75-33.75v-82.5h-21.25V50h21.25V16.25Zm148.049 149c-7.75 12.75-20 22.5-42.25 22.5-31.25 0-43-21-43-51.75V50h22.75v79.25c0 20.75 3.5 38.75 28.25 38.75 21.5 0 34.25-15.25 34.25-44V50h22.75v134.5h-22.75v-19.25Zm141.09-162h22.75V184.5h-22.75v-20.25c-8.25 14.25-22.5 23.5-44 23.5-30.75 0-57.5-25.5-57.5-70 0-44.25 26.75-70 57.5-70 21.5 0 35.75 9.25 44 23.5v-68Zm-38.25 64c-23.25 0-38.5 18.5-38.5 50.5s15.25 50.5 38.5 50.5c20.25 0 39.25-15 39.25-50.5s-19-50.5-39.25-50.5Zm109.629-64v27.5h-22.75V3.25h22.75Zm0 46.75v134.5h-22.75V50h22.75Zm146.338 67.75c0 48.75-33.25 70-64.5 70s-64.5-21.25-64.5-70 33.25-70 64.5-70 64.5 21.25 64.5 70Zm-64.5 50c20.5 0 40.25-15.5 40.25-50 0-35.75-19.75-50-40.25-50s-40.25 13.25-40.25 50c0 35.75 19.75 50 40.25 50Z"/>
</svg>
