<svg xmlns="http://www.w3.org/2000/svg" fill="none" viewBox="0 0 78 21">
  <path fill="currentColor" d="M5.668.425c6.21 0 10.665 2.322 10.665 9.774 0 7.479-4.455 9.801-10.665 9.801H.322V.425h5.346Zm-.081 2.322H3.076v14.931h2.511c4.05 0 7.938-.81 7.938-7.479 0-6.642-3.888-7.452-7.938-7.452ZM17.731 20v-3.105h3.105V20h-3.105Zm14.61-8.262c-.486.027-.972.027-1.485.027H27.4V20h-2.754V.425h6.21c4.78 0 8.154.945 8.154 5.643 0 3.105-1.485 4.59-3.888 5.238L39.658 20H36.58l-4.239-8.262Zm-4.94-8.991v6.696h3.671c2.862 0 5.103-.297 5.103-3.321s-2.24-3.375-5.103-3.375H27.4Zm13.735 11.88c0-2.997 1.997-4.995 4.94-5.994-1.295-1.485-2.16-2.889-2.16-4.428 0-2.538 2.215-4.158 5.266-4.158 2.375 0 5.021 1.08 5.021 4.212 0 2.457-1.647 4.104-4.05 5.076l3.97 4.212a13.27 13.27 0 0 0 .945-4.158h2.538c-.163 2.133-.757 4.212-1.756 5.967L60.224 20h-3.536l-2.377-2.538c-1.673 1.782-3.914 2.889-6.669 2.889-3.995 0-6.507-2.511-6.507-5.724Zm7.505-6.912.055.081c1.863-.675 3.159-1.944 3.159-3.51 0-1.593-1.188-2.187-2.62-2.187-1.377 0-2.7.594-2.7 1.917 0 1.242 1.054 2.619 2.107 3.699Zm4.105 8.1-5.239-5.616c-2.322.837-3.752 2.187-3.752 4.32 0 2.268 1.835 3.699 3.887 3.699 1.998 0 3.78-.837 5.103-2.403ZM66.761.425c6.21 0 10.665 2.322 10.665 9.774 0 7.479-4.455 9.801-10.665 9.801h-5.346V.425h5.346Zm-.081 2.322h-2.51v14.931h2.51c4.05 0 7.939-.81 7.939-7.479 0-6.642-3.888-7.452-7.938-7.452Z"/>
</svg>
