<svg xmlns="http://www.w3.org/2000/svg" fill="none" viewBox="0 0 79 21">
  <path fill="currentColor" d="M5.668.425c6.21 0 10.665 2.322 10.665 9.774 0 7.479-4.455 9.801-10.665 9.801H.322V.425h5.346Zm-.081 2.322H3.076v14.931h2.511c4.05 0 7.938-.81 7.938-7.479 0-6.642-3.888-7.452-7.938-7.452ZM17.731 20v-3.105h3.105V20h-3.105ZM30.536.425h3.186L41.093 20h-2.97l-1.538-4.239h-8.992L26.081 20h-2.808L30.537.425ZM28.43 13.412h7.29L32.049 3.206 28.43 13.412Zm30.424.351c-.864 4.32-4.24 6.588-8.478 6.588-5.616 0-8.883-4.212-8.883-10.179 0-6.075 3.564-10.098 9.099-10.098 4.05 0 7.317 2.403 8.154 6.588h-2.673c-.594-2.43-2.484-4.266-5.616-4.266-3.456 0-6.156 2.7-6.156 7.776 0 4.941 2.592 7.857 6.237 7.857 3.105 0 5.022-1.755 5.643-4.266h2.673Zm19.32 0c-.863 4.32-4.238 6.588-8.477 6.588-5.616 0-8.883-4.212-8.883-10.179 0-6.075 3.564-10.098 9.099-10.098 4.05 0 7.317 2.403 8.154 6.588h-2.673c-.594-2.43-2.484-4.266-5.616-4.266-3.456 0-6.156 2.7-6.156 7.776 0 4.941 2.592 7.857 6.237 7.857 3.105 0 5.022-1.755 5.643-4.266h2.673Z"/>
</svg>
