<svg viewBox="0 0 1130 1130" fill="none" xmlns="http://www.w3.org/2000/svg">
<path fill-rule="evenodd" clip-rule="evenodd" d="M235.913 207C212.213 207 193 226.213 193 249.913V697.835C193 707.315 200.685 715 210.165 715H214.347C206.584 717.231 200.157 723.043 197.282 730.889L118.681 945.393C117.752 947.928 117.247 950.485 117.119 953H117V985.835C117 995.315 124.685 1003 134.165 1003H997.835C1007.31 1003 1015 995.315 1015 985.835V957.188C1015.38 953.846 1015.11 950.349 1014.06 946.858L949.754 732.354C946.972 723.077 939.289 716.29 930.046 714.48C937.49 712.602 943 705.862 943 697.835V249.913C943 226.213 923.787 207 900.087 207H235.913ZM142.857 980C136.285 980 130.449 977.599 126 973.728V985.835C126 990.344 129.656 994 134.165 994H997.835C1002.34 994 1006 990.344 1006 985.835V973.945C1001.57 977.693 995.825 980 989.401 980H142.857Z" fill="#2749FF"/>
<path fill-rule="evenodd" clip-rule="evenodd" d="M240.628 284.716C238.819 276.985 237.496 270.035 236.598 263.787C233.666 252.08 229.454 240.146 224.011 231.826C218.445 223.316 212.752 220.111 206.67 221.78C203.03 222.779 200.894 224.878 199.62 227.906C198.248 231.165 197.824 235.682 198.367 241.241C199.442 252.261 204.124 265.634 209.229 276.928C211.663 280.995 213.647 284.976 214.942 288.552C215.744 290.767 214.702 293.226 212.552 294.19C210.402 295.154 207.873 294.296 206.752 292.224C204.988 288.961 203.104 285.194 201.249 281.122C195.257 271.23 186.041 260.227 176.816 253.332C172.153 249.847 167.805 247.652 164.114 246.947C160.619 246.279 157.869 246.942 155.571 249.082C153.45 251.055 152.739 254.733 155.085 261.37C157.343 267.756 161.919 275.212 167.253 282.493C172.541 289.71 178.369 296.482 182.896 301.467C185.154 303.955 187.078 305.985 188.434 307.391C189.111 308.093 189.646 308.638 190.009 309.006C190.19 309.19 190.329 309.329 190.421 309.421L190.523 309.523L190.547 309.547L190.552 309.552L190.553 309.552C192.166 311.151 192.335 313.702 190.946 315.5C189.557 317.297 187.046 317.778 185.091 316.62L171.474 308.553C153.111 301.619 142.251 302.478 136.776 305.932C131.749 309.104 129.548 315.752 131.953 325.632C133.428 331.696 138.801 335.268 147.169 337.278C154.638 339.073 163.138 339.278 170.146 339.447L170.159 339.447C170.922 339.465 171.667 339.483 172.392 339.503C173.607 339.536 174.757 340.059 175.581 340.953C176.404 341.848 176.831 343.037 176.763 344.251C176.728 344.885 176.612 345.759 176.466 346.854C175.658 352.923 173.941 365.811 180.061 382.696C183.122 391.141 188.576 398.939 194.694 405.182C200.845 411.46 207.384 415.878 212.345 417.811C214.254 418.555 215.419 420.495 215.18 422.53C214.233 430.573 218.104 438.86 226.361 443.507C234.604 448.146 247.886 449.456 265.902 441.698C284.325 433.764 292.859 426.2 297.25 420.158C299.447 417.134 300.707 414.354 301.636 411.831C302.016 410.8 302.33 409.843 302.649 408.869L302.65 408.868C302.733 408.613 302.817 408.357 302.902 408.099C303.295 406.914 303.736 405.626 304.289 404.426C304.454 404.07 304.64 402.925 303.909 400.193C303.276 397.825 302.21 395.122 300.962 391.957L300.627 391.108C299.29 387.713 297.817 383.888 296.89 380.082C295.967 376.292 295.478 372.116 296.44 368.077C299.822 353.876 311.906 344.319 328.131 334.472C334.628 330.528 338.482 322.441 338.61 313.916C338.738 305.42 335.171 297.692 328.348 294.055C323.779 291.618 317.196 293.221 309.407 298.382C301.963 303.315 295.029 310.476 290.96 315.56C289.873 316.918 288.101 317.528 286.408 317.127C284.715 316.725 283.406 315.384 283.045 313.682C281.636 307.045 279.976 295.807 279.491 283.372C279.008 270.985 279.676 257.066 283.127 245.237C285.522 237.028 283.555 229.659 279.887 224.301C276.051 218.697 270.917 216 267.681 216C261.724 216 255.207 216.198 250.557 221.072C245.92 225.933 241.889 236.892 245.443 262.06C247.334 269.69 248.667 277.05 249.47 283.098C249.786 285.477 248.18 287.686 245.819 288.118C243.459 288.549 241.174 287.053 240.628 284.716Z" fill="white"/>
<path d="M209 248.369C209 234.358 220.528 223 234.748 223H897.252C911.472 223 923 234.358 923 248.369V666.631C923 680.642 911.472 692 897.252 692H234.748C220.528 692 209 680.642 209 666.631V248.369Z" fill="white"/>
<path fill-rule="evenodd" clip-rule="evenodd" d="M126 973.728C130.449 977.599 136.285 980 142.857 980H989.401C995.825 980 1001.57 977.693 1006 973.945V985.835C1006 990.344 1002.34 994 997.835 994H134.165C129.656 994 126 990.344 126 985.835V973.728Z" fill="white"/>
<path d="M407.463 884.153C409.668 876.932 416.331 872 423.88 872H715.261C723.537 872 730.635 877.906 732.14 886.044L742.249 940.714C744.2 951.265 736.1 961 725.37 961H407.188C395.655 961 387.403 949.853 390.771 938.822L407.463 884.153Z" fill="white"/>
<path fill-rule="evenodd" clip-rule="evenodd" d="M302.005 848H252.306L258.888 821.237H306.794L302.005 848ZM243.038 848L249.62 821.237H199.825L193.462 839.327C193.264 839.89 193.18 840.253 193.149 840.467C193.144 840.502 193.14 840.53 193.138 840.551C193.864 844.255 197.747 848 203.51 848H243.038ZM308.404 812.237H261.101L266.81 789.026H312.557L308.404 812.237ZM251.833 812.237L257.541 789.026H211.154L202.99 812.237H251.833ZM314.167 780.026H269.023L277.145 747H320.077L314.167 780.026ZM259.755 780.026L267.877 747H232.777C229.987 747 228.33 747.893 226.856 749.443C225.066 751.325 223.401 754.389 221.738 758.933L214.319 780.026H259.755ZM323.31 780.026L329.22 747H378.771L373.108 780.026H323.31ZM382.239 780.026L387.903 747H432.571L428.631 780.026H382.239ZM437.695 780.026L441.635 747H486.217L484.044 780.026L437.695 780.026ZM493.063 780.026L495.236 747H538.497V780.026H493.063ZM547.497 780.026V747H587.455L590.616 780.026H547.497ZM599.657 780.026L596.496 747H643.633L647.789 780.026H599.657ZM656.86 780.026L652.704 747H697.409L703.276 780.026H656.86ZM712.417 780.026L706.55 747H754.395L761.013 780.026H712.417ZM770.192 780.026L763.574 747H808.012L816.382 780.026H770.192ZM825.667 780.026L817.296 747H866.539L875.201 780.026H825.667ZM884.506 780.026L875.843 747H912.187C915.25 747 916.508 747.785 917.541 748.811C919.083 750.343 920.672 753.062 922.928 758.278C923.068 758.603 923.195 758.97 923.299 759.379L928.585 780.026H884.506ZM886.866 789.026H930.889L936.831 812.237H892.954L886.866 789.026ZM895.314 821.237H939.135L943.745 839.243C943.855 839.675 943.901 839.943 943.918 840.103C943.922 840.133 943.924 840.157 943.925 840.174C943.376 844.008 939.461 848 933.489 848H902.334L895.314 821.237ZM886.01 821.237L893.029 848H842.896L836.112 821.237H886.01ZM826.828 821.237L833.611 848H783.813L778.45 821.237H826.828ZM769.271 821.237L774.634 848H724.491L719.737 821.237H769.271ZM710.596 821.237L715.35 848H665.415L662.046 821.237H710.596ZM652.975 821.237L656.344 848H606.163L603.602 821.237H652.975ZM594.561 821.237L597.122 848H547.497V821.237H594.561ZM538.497 821.237V848H488.591L490.352 821.237H538.497ZM481.332 821.237L479.571 848H429.587L432.779 821.237H481.332ZM423.715 821.237L420.523 848H370.583L375.172 821.237H423.715ZM366.041 821.237L361.451 848H311.148L315.937 821.237L366.041 821.237ZM367.584 812.237L317.547 812.237L321.7 789.026H371.564L367.584 812.237ZM376.716 812.237L380.696 789.026H427.558L424.789 812.237H376.716ZM433.853 812.237L436.622 789.026L483.452 789.026L481.924 812.237H433.853ZM490.944 812.237L492.471 789.026H538.497V812.237H490.944ZM547.497 812.237V789.026H591.478L593.699 812.237H547.497ZM602.74 812.237L600.519 789.026H648.922L651.843 812.237H602.74ZM660.914 812.237L657.993 789.026H704.874L708.997 812.237H660.914ZM718.138 812.237L714.015 789.026H762.817L767.468 812.237H718.138ZM776.647 812.237L771.996 789.026H818.664L824.547 812.237H776.647ZM833.831 812.237L827.948 789.026H877.562L883.649 812.237H833.831Z" fill="white"/>
<path fill-rule="evenodd" clip-rule="evenodd" d="M845.598 216C851.555 216 858.072 216.198 862.722 221.073C867.359 225.933 871.391 236.892 867.837 262.06C865.946 269.69 864.613 277.05 863.809 283.098C863.493 285.477 865.1 287.686 867.46 288.118C869.821 288.55 872.105 287.053 872.652 284.716C874.461 276.985 875.783 270.035 876.682 263.788C879.614 252.08 883.826 240.146 889.268 231.826C894.834 223.316 900.528 220.111 906.61 221.78C910.249 222.779 912.385 224.878 913.66 227.906C915.031 231.165 915.455 235.682 914.913 241.242C913.838 252.262 909.155 265.634 904.05 276.928C901.616 280.995 899.632 284.976 898.337 288.552C897.536 290.767 898.578 293.226 900.728 294.19C902.877 295.154 905.407 294.297 906.527 292.224C908.292 288.961 910.176 285.195 912.03 281.122C918.023 271.23 927.238 260.227 936.464 253.332C941.127 249.847 945.474 247.653 949.165 246.947C952.66 246.279 955.41 246.943 957.709 249.082C959.829 251.055 960.541 254.733 958.194 261.37C955.936 267.756 951.361 275.212 946.027 282.493C940.739 289.71 934.911 296.482 930.384 301.467C928.125 303.955 926.201 305.986 924.846 307.391C924.168 308.093 923.634 308.639 923.271 309.006L923.096 309.182C922.998 309.281 922.919 309.361 922.859 309.421L922.757 309.523L922.733 309.547L922.727 309.552C921.113 311.151 920.945 313.702 922.334 315.5C923.723 317.297 926.234 317.778 928.188 316.62L941.806 308.553C960.169 301.619 971.029 302.478 976.504 305.932C981.531 309.104 983.731 315.752 981.327 325.632C979.851 331.696 974.479 335.268 966.111 337.279C958.642 339.073 950.142 339.278 943.133 339.447C942.366 339.465 941.616 339.483 940.888 339.503C939.672 339.536 938.522 340.059 937.699 340.953C936.875 341.848 936.449 343.037 936.516 344.251C936.551 344.884 936.667 345.754 936.812 346.845L936.813 346.852L936.814 346.854C937.622 352.922 939.338 365.811 933.218 382.696C930.157 391.141 924.704 398.939 918.586 405.183C912.435 411.46 905.895 415.878 900.935 417.811C899.026 418.555 897.86 420.495 898.1 422.53C899.046 430.573 895.176 438.86 886.918 443.507C878.675 448.146 865.393 449.456 847.378 441.698C828.955 433.764 820.42 426.2 816.03 420.158C813.833 417.134 812.572 414.354 811.644 411.832C811.264 410.8 810.95 409.842 810.63 408.868C810.547 408.613 810.463 408.357 810.377 408.099C809.985 406.914 809.544 405.626 808.99 404.427C808.826 404.07 808.64 402.925 809.37 400.193C810.003 397.826 811.069 395.123 812.317 391.961L812.317 391.959L812.318 391.957C812.428 391.678 812.54 391.395 812.653 391.108C813.989 387.713 815.462 383.888 816.389 380.082C817.312 376.292 817.802 372.116 816.84 368.077C813.457 353.876 801.374 344.32 785.149 334.472C778.652 330.529 774.798 322.441 774.67 313.916C774.542 305.42 778.109 297.692 784.931 294.055C789.501 291.618 796.083 293.222 803.873 298.383C811.316 303.315 818.25 310.476 822.319 315.56C823.406 316.918 825.179 317.528 826.871 317.127C828.564 316.725 829.874 315.384 830.235 313.683C831.643 307.045 833.303 295.807 833.788 283.373C834.271 270.985 833.604 257.066 830.153 245.237C827.757 237.028 829.724 229.66 833.392 224.301C837.228 218.697 842.362 216 845.598 216ZM886.212 306.754C872.729 303.93 859.336 306.327 851.257 309.378C848.932 310.256 846.336 309.083 845.458 306.758C844.58 304.433 845.753 301.837 848.078 300.958C857.439 297.423 872.59 294.706 888.057 297.945C903.733 301.228 919.635 310.634 929.847 331.05C930.958 333.273 930.058 335.976 927.835 337.088C925.612 338.2 922.909 337.299 921.797 335.076C912.941 317.369 899.486 309.534 886.212 306.754ZM832.764 388.003C831.652 385.78 828.949 384.879 826.726 385.991C824.504 387.103 823.603 389.806 824.715 392.029C829.793 402.183 846.628 422.411 874.083 422.411C876.569 422.411 878.583 420.396 878.583 417.911C878.583 415.426 876.569 413.411 874.083 413.411C851.311 413.411 836.987 396.446 832.764 388.003Z" fill="white"/>
<path d="M677.816 315.539C678.63 315.539 679.352 315.15 679.809 314.548C678.445 313.592 677.075 312.646 675.699 311.709C675.456 312.094 675.316 312.55 675.316 313.039C675.316 314.419 676.435 315.539 677.816 315.539Z" fill="#2749FF"/>
<path d="M668.316 313.039C668.316 313.102 668.318 313.164 668.323 313.226C669.342 313.971 670.357 314.721 671.366 315.478C672.482 315.228 673.316 314.231 673.316 313.039C673.316 311.658 672.197 310.539 670.816 310.539C669.435 310.539 668.316 311.658 668.316 313.039Z" fill="#2749FF"/>
<path d="M677.816 317.539C676.901 317.539 676.101 318.03 675.665 318.764C676.969 319.779 678.263 320.805 679.548 321.842C680.021 321.387 680.316 320.747 680.316 320.039C680.316 318.658 679.197 317.539 677.816 317.539Z" fill="#2749FF"/>
<path d="M684.816 324.539C684.283 324.539 683.788 324.706 683.382 324.99C684.621 326.026 685.849 327.071 687.068 328.126C687.227 327.797 687.316 327.428 687.316 327.039C687.316 325.658 686.197 324.539 684.816 324.539Z" fill="#2749FF"/>
<path d="M691.816 331.539C691.553 331.539 691.3 331.579 691.062 331.655C692.135 332.622 693.201 333.598 694.257 334.582C694.296 334.407 694.316 334.225 694.316 334.039C694.316 332.658 693.197 331.539 691.816 331.539Z" fill="#2749FF"/>
<path d="M698.816 338.539C698.689 338.539 698.564 338.548 698.442 338.566C699.4 339.499 700.35 340.439 701.292 341.386C701.308 341.273 701.316 341.157 701.316 341.039C701.316 339.658 700.197 338.539 698.816 338.539Z" fill="#2749FF"/>
<path d="M705.816 345.539C705.663 345.539 705.512 345.552 705.367 345.579C706.333 346.598 707.291 347.624 708.239 348.658C708.289 348.46 708.316 348.252 708.316 348.039C708.316 346.658 707.197 345.539 705.816 345.539Z" fill="#2749FF"/>
<path d="M712.816 352.539C712.484 352.539 712.168 352.603 711.878 352.721C712.919 353.91 713.948 355.11 714.964 356.319C715.187 355.945 715.316 355.507 715.316 355.039C715.316 353.658 714.197 352.539 712.816 352.539Z" fill="#2749FF"/>
<path d="M719.816 359.539C719.171 359.539 718.582 359.783 718.139 360.185C719.18 361.482 720.207 362.789 721.219 364.108C721.881 363.659 722.316 362.9 722.316 362.039C722.316 360.658 721.197 359.539 719.816 359.539Z" fill="#2749FF"/>
<path d="M726.816 366.539C725.667 366.539 724.699 367.314 724.406 368.37C725.171 369.418 725.926 370.473 726.671 371.535C726.719 371.537 726.767 371.539 726.816 371.539C728.197 371.539 729.316 370.419 729.316 369.039C729.316 367.658 728.197 366.539 726.816 366.539Z" fill="#2749FF"/>
<path d="M733.816 380.539C733.451 380.539 733.104 380.617 732.791 380.758C733.669 382.159 734.529 383.571 735.373 384.995C735.948 384.536 736.316 383.831 736.316 383.039C736.316 381.658 735.197 380.539 733.816 380.539Z" fill="#2749FF"/>
<path d="M738.316 390.039C738.316 390.069 738.317 390.099 738.318 390.13C738.679 390.782 739.037 391.436 739.391 392.093C739.795 392.374 740.286 392.539 740.816 392.539C742.197 392.539 743.316 391.419 743.316 390.039C743.316 388.658 742.197 387.539 740.816 387.539C739.435 387.539 738.316 388.658 738.316 390.039Z" fill="#2749FF"/>
<path d="M740.816 394.539C740.774 394.539 740.732 394.54 740.69 394.542C741.394 395.89 742.082 397.248 742.756 398.616C743.106 398.186 743.316 397.637 743.316 397.039C743.316 395.658 742.197 394.539 740.816 394.539Z" fill="#2749FF"/>
<path d="M747.816 401.539C746.441 401.539 745.326 402.648 745.316 404.02C745.603 404.651 745.887 405.284 746.167 405.918C746.607 406.304 747.184 406.539 747.816 406.539C749.197 406.539 750.316 405.419 750.316 404.039C750.316 402.658 749.197 401.539 747.816 401.539Z" fill="#2749FF"/>
<path d="M754.816 422.539C754.052 422.539 753.367 422.882 752.909 423.422C753.35 424.76 753.778 426.106 754.191 427.46C754.391 427.511 754.6 427.539 754.816 427.539C756.197 427.539 757.316 426.419 757.316 425.039C757.316 423.658 756.197 422.539 754.816 422.539Z" fill="#2749FF"/>
<path d="M754.816 429.539H754.814C755.264 431.075 755.696 432.622 756.11 434.178C756.833 433.74 757.316 432.946 757.316 432.039C757.316 430.658 756.197 429.539 754.816 429.539Z" fill="#2749FF"/>
<path d="M757.078 437.973C757.219 438.272 757.303 438.603 757.315 438.952C757.254 438.699 757.193 438.446 757.132 438.194L757.078 437.973Z" fill="#2749FF"/>
<path d="M761.816 450.539C761.029 450.539 760.327 450.902 759.869 451.471C760.075 452.687 760.271 453.909 760.456 455.137C760.848 455.391 761.315 455.539 761.816 455.539C763.197 455.539 764.316 454.419 764.316 453.039C764.316 451.658 763.197 450.539 761.816 450.539Z" fill="#2749FF"/>
<path d="M761.816 457.539C761.466 457.539 761.133 457.611 760.831 457.74C761.047 459.32 761.246 460.91 761.426 462.508C761.553 462.528 761.683 462.539 761.816 462.539C763.197 462.539 764.316 461.419 764.316 460.039C764.316 458.658 763.197 457.539 761.816 457.539Z" fill="#2749FF"/>
<path d="M761.695 464.542C761.678 464.542 761.661 464.543 761.645 464.544C761.813 466.194 761.963 467.854 762.092 469.524C763.343 469.386 764.316 468.326 764.316 467.039C764.316 465.658 763.197 464.539 761.816 464.539C761.776 464.539 761.735 464.54 761.695 464.542Z" fill="#2749FF"/>
<path d="M764.316 474.039C764.316 472.803 763.419 471.776 762.241 471.575C762.35 473.188 762.44 474.81 762.512 476.441C763.554 476.139 764.316 475.178 764.316 474.039Z" fill="#2749FF"/>
<path d="M764.316 481.039C764.316 479.931 763.595 478.991 762.597 478.663C762.649 480.226 762.684 481.798 762.702 483.377C763.645 483.02 764.316 482.108 764.316 481.039Z" fill="#2749FF"/>
<path d="M764.316 488.039C764.316 486.975 763.651 486.066 762.715 485.705C762.715 487.259 762.699 488.821 762.666 490.391C763.628 490.043 764.316 489.121 764.316 488.039Z" fill="#2749FF"/>
<path d="M764.316 495.039C764.316 493.934 763.599 492.997 762.606 492.666C762.556 494.259 762.488 495.86 762.403 497.469C763.5 497.205 764.316 496.217 764.316 495.039Z" fill="#2749FF"/>
<path d="M754 553C753.64 553 753.299 553.076 752.99 553.212C752.648 554.441 752.297 555.675 751.936 556.912C752.387 557.569 753.143 558 754 558C755.38 558 756.5 556.881 756.5 555.5C756.5 554.119 755.38 553 754 553Z" fill="#2749FF"/>
<path d="M749.5 569.5C749.5 568.735 749.156 568.051 748.615 567.592C748.133 569.055 747.637 570.523 747.127 571.997C748.449 571.93 749.5 570.838 749.5 569.5Z" fill="#2749FF"/>
<path d="M747 574C746.794 574 746.594 574.025 746.403 574.072C745.943 575.374 745.473 576.68 744.993 577.991C745.448 578.603 746.178 579 747 579C748.38 579 749.5 577.881 749.5 576.5C749.5 575.119 748.38 574 747 574Z" fill="#2749FF"/>
<path d="M742.5 590.5C742.5 589.496 741.908 588.63 741.054 588.232C740.427 589.779 739.787 591.317 739.135 592.846C739.405 592.946 739.696 593 740 593C741.38 593 742.5 591.881 742.5 590.5Z" fill="#2749FF"/>
<path d="M735.5 604.5C735.5 603.782 735.197 603.135 734.713 602.679C734.031 604.119 733.338 605.55 732.633 606.973C732.753 606.991 732.875 607 733 607C734.38 607 735.5 605.881 735.5 604.5Z" fill="#2749FF"/>
<path d="M733 609C732.325 609 731.714 609.267 731.264 609.701C731.115 609.994 730.965 610.286 730.815 610.578C730.719 610.766 730.622 610.954 730.525 611.141C730.508 611.258 730.5 611.378 730.5 611.5C730.5 612.881 731.619 614 733 614C734.38 614 735.5 612.881 735.5 611.5C735.5 610.119 734.38 609 733 609Z" fill="#2749FF"/>
<path d="M728.5 618.5C728.5 617.74 728.161 617.06 727.626 616.601C726.842 618.037 726.047 619.465 725.24 620.882C725.479 620.959 725.735 621 726 621C727.38 621 728.5 619.881 728.5 618.5Z" fill="#2749FF"/>
<path d="M721.5 632.5C721.5 631.377 720.76 630.427 719.741 630.112C718.889 631.479 718.026 632.836 717.153 634.185C717.61 634.686 718.268 635 719 635C720.38 635 721.5 633.881 721.5 632.5Z" fill="#2749FF"/>
<path d="M714.5 639.5C714.5 639.146 714.426 638.81 714.294 638.505C713.502 639.677 712.703 640.841 711.894 641.998C711.913 641.998 711.932 641.999 711.951 641.999C711.967 642 711.984 642 712 642C713.38 642 714.5 640.881 714.5 639.5Z" fill="#2749FF"/>
<path d="M707.5 653.5C707.5 652.224 706.544 651.172 705.31 651.019C704.44 652.161 703.562 653.295 702.675 654.421C703.042 655.346 703.944 656 705 656C706.38 656 707.5 654.881 707.5 653.5Z" fill="#2749FF"/>
<path d="M700.5 660.5C700.5 659.654 700.079 658.906 699.436 658.454C698.383 659.74 697.318 661.015 696.243 662.279C696.695 662.725 697.315 663 698 663C699.38 663 700.5 661.881 700.5 660.5Z" fill="#2749FF"/>
<path d="M693.5 667.5C693.5 666.943 693.317 666.428 693.009 666.013C691.928 667.238 690.837 668.453 689.735 669.657C690.106 669.875 690.538 670 691 670C692.38 670 693.5 668.881 693.5 667.5Z" fill="#2749FF"/>
<path d="M686.5 674.5C686.5 674.105 686.408 673.731 686.245 673.399C685.164 674.537 684.074 675.664 682.975 676.781C683.287 676.922 683.634 677 684 677C685.38 677 686.5 675.881 686.5 674.5Z" fill="#2749FF"/>
<path d="M679.5 681.5C679.5 681.131 679.42 680.782 679.277 680.467C678.152 681.566 677.019 682.655 675.877 683.734C676.214 683.904 676.596 684 677 684C678.38 684 679.5 682.881 679.5 681.5Z" fill="#2749FF"/>
<path d="M672.5 688.5C672.5 688.024 672.367 687.579 672.136 687.201C670.922 688.304 669.7 689.396 668.468 690.476C668.891 690.804 669.422 691 670 691C671.38 691 672.5 689.881 672.5 688.5Z" fill="#2749FF"/>
<path d="M782 565C783.11 565 784.051 564.276 784.377 563.275L784.465 562.919C784.488 562.783 784.5 562.643 784.5 562.5C784.5 561.119 783.38 560 782 560C780.619 560 779.5 561.119 779.5 562.5C779.5 563.881 780.619 565 782 565Z" fill="#2749FF"/>
<path d="M775.816 434.539C776.907 434.539 777.835 433.839 778.176 432.865C777.786 431.848 777.387 430.835 776.981 429.826C776.633 429.643 776.237 429.539 775.816 429.539C774.435 429.539 773.316 430.658 773.316 432.039C773.316 433.419 774.435 434.539 775.816 434.539Z" fill="#2749FF"/>
<path d="M764.316 404.039C764.316 403.92 764.308 403.803 764.292 403.688C763.982 403.148 763.671 402.608 763.357 402.07C762.933 401.737 762.398 401.539 761.816 401.539C760.435 401.539 759.316 402.658 759.316 404.039C759.316 405.419 760.435 406.539 761.816 406.539C763.197 406.539 764.316 405.419 764.316 404.039Z" fill="#2749FF"/>
<path d="M754.816 392.539C755.636 392.539 756.365 392.143 756.821 391.533C755.956 390.219 755.077 388.914 754.186 387.619C753.11 387.898 752.316 388.875 752.316 390.039C752.316 391.419 753.435 392.539 754.816 392.539Z" fill="#2749FF"/>
<path d="M740.816 371.539C741.211 371.539 741.584 371.447 741.916 371.284C740.891 370.031 739.855 368.786 738.806 367.551C738.498 367.967 738.316 368.482 738.316 369.039C738.316 370.419 739.435 371.539 740.816 371.539Z" fill="#2749FF"/>
<path d="M733.816 364.539C734.502 364.539 735.123 364.262 735.575 363.815C734.475 362.567 733.363 361.328 732.239 360.099C731.676 360.557 731.316 361.256 731.316 362.039C731.316 363.419 732.435 364.539 733.816 364.539Z" fill="#2749FF"/>
<path d="M726.816 357.539C727.663 357.539 728.411 357.118 728.864 356.473C727.739 355.286 726.603 354.109 725.456 352.94C724.77 353.386 724.316 354.159 724.316 355.039C724.316 356.419 725.435 357.539 726.816 357.539Z" fill="#2749FF"/>
<path d="M719.816 350.539C720.697 350.539 721.472 350.083 721.917 349.394C720.752 348.248 719.578 347.11 718.394 345.982C717.742 346.434 717.316 347.186 717.316 348.039C717.316 349.419 718.435 350.539 719.816 350.539Z" fill="#2749FF"/>
<path d="M712.816 343.539C713.61 343.539 714.317 343.169 714.775 342.592C713.553 341.465 712.321 340.348 711.08 339.24C710.609 339.695 710.316 340.332 710.316 341.039C710.316 342.419 711.435 343.539 712.816 343.539Z" fill="#2749FF"/>
<path d="M705.816 336.539C706.408 336.539 706.951 336.333 707.38 335.989C706.142 334.919 704.895 333.857 703.641 332.805C703.434 333.169 703.316 333.59 703.316 334.039C703.316 335.419 704.435 336.539 705.816 336.539Z" fill="#2749FF"/>
<path d="M687.315 319.952C686.26 319.173 685.202 318.399 684.14 317.631C683.088 317.926 682.316 318.892 682.316 320.039C682.316 321.419 683.435 322.539 684.816 322.539C686.197 322.539 687.316 321.419 687.316 320.039C687.316 320.01 687.315 319.981 687.315 319.952Z" fill="#2749FF"/>
<path d="M694.316 327.039C694.316 328.419 693.197 329.539 691.816 329.539C690.435 329.539 689.316 328.419 689.316 327.039C689.316 325.658 690.435 324.539 691.816 324.539C693.197 324.539 694.316 325.658 694.316 327.039Z" fill="#2749FF"/>
<path d="M701.316 334.039C701.316 335.419 700.197 336.539 698.816 336.539C697.435 336.539 696.316 335.419 696.316 334.039C696.316 332.658 697.435 331.539 698.816 331.539C700.197 331.539 701.316 332.658 701.316 334.039Z" fill="#2749FF"/>
<path d="M705.816 343.539C707.197 343.539 708.316 342.419 708.316 341.039C708.316 339.658 707.197 338.539 705.816 338.539C704.435 338.539 703.316 339.658 703.316 341.039C703.316 342.419 704.435 343.539 705.816 343.539Z" fill="#2749FF"/>
<path d="M715.316 348.039C715.316 349.419 714.197 350.539 712.816 350.539C711.435 350.539 710.316 349.419 710.316 348.039C710.316 346.658 711.435 345.539 712.816 345.539C714.197 345.539 715.316 346.658 715.316 348.039Z" fill="#2749FF"/>
<path d="M719.816 357.539C721.197 357.539 722.316 356.419 722.316 355.039C722.316 353.658 721.197 352.539 719.816 352.539C718.435 352.539 717.316 353.658 717.316 355.039C717.316 356.419 718.435 357.539 719.816 357.539Z" fill="#2749FF"/>
<path d="M729.316 362.039C729.316 363.419 728.197 364.539 726.816 364.539C725.435 364.539 724.316 363.419 724.316 362.039C724.316 360.658 725.435 359.539 726.816 359.539C728.197 359.539 729.316 360.658 729.316 362.039Z" fill="#2749FF"/>
<path d="M733.816 371.539C735.197 371.539 736.316 370.419 736.316 369.039C736.316 367.658 735.197 366.539 733.816 366.539C732.435 366.539 731.316 367.658 731.316 369.039C731.316 370.419 732.435 371.539 733.816 371.539Z" fill="#2749FF"/>
<path d="M733.816 378.539C735.197 378.539 736.316 377.419 736.316 376.039C736.316 374.658 735.197 373.539 733.816 373.539C732.435 373.539 731.316 374.658 731.316 376.039C731.316 377.419 732.435 378.539 733.816 378.539Z" fill="#2749FF"/>
<path d="M743.316 376.039C743.316 377.419 742.197 378.539 740.816 378.539C739.435 378.539 738.316 377.419 738.316 376.039C738.316 374.658 739.435 373.539 740.816 373.539C742.197 373.539 743.316 374.658 743.316 376.039Z" fill="#2749FF"/>
<path d="M743.316 383.039C743.316 384.419 742.197 385.539 740.816 385.539C739.435 385.539 738.316 384.419 738.316 383.039C738.316 381.658 739.435 380.539 740.816 380.539C742.197 380.539 743.316 381.658 743.316 383.039Z" fill="#2749FF"/>
<path d="M747.816 385.539C749.197 385.539 750.316 384.419 750.316 383.039C750.316 381.658 749.197 380.539 747.816 380.539C746.435 380.539 745.316 381.658 745.316 383.039C745.316 384.419 746.435 385.539 747.816 385.539Z" fill="#2749FF"/>
<path d="M747.816 392.539C749.197 392.539 750.316 391.419 750.316 390.039C750.316 388.658 749.197 387.539 747.816 387.539C746.435 387.539 745.316 388.658 745.316 390.039C745.316 391.419 746.435 392.539 747.816 392.539Z" fill="#2749FF"/>
<path d="M750.316 397.039C750.316 398.419 749.197 399.539 747.816 399.539C746.435 399.539 745.316 398.419 745.316 397.039C745.316 395.658 746.435 394.539 747.816 394.539C749.197 394.539 750.316 395.658 750.316 397.039Z" fill="#2749FF"/>
<path d="M754.816 399.539C756.197 399.539 757.316 398.419 757.316 397.039C757.316 395.658 756.197 394.539 754.816 394.539C753.435 394.539 752.316 395.658 752.316 397.039C752.316 398.419 753.435 399.539 754.816 399.539Z" fill="#2749FF"/>
<path d="M754.816 406.539C756.197 406.539 757.316 405.419 757.316 404.039C757.316 402.658 756.197 401.539 754.816 401.539C753.435 401.539 752.316 402.658 752.316 404.039C752.316 405.419 753.435 406.539 754.816 406.539Z" fill="#2749FF"/>
<path d="M754.816 413.539C756.197 413.539 757.316 412.419 757.316 411.039C757.316 409.658 756.197 408.539 754.816 408.539C753.435 408.539 752.316 409.658 752.316 411.039C752.316 412.419 753.435 413.539 754.816 413.539Z" fill="#2749FF"/>
<path d="M764.316 411.039C764.316 412.419 763.197 413.539 761.816 413.539C760.435 413.539 759.316 412.419 759.316 411.039C759.316 409.658 760.435 408.539 761.816 408.539C763.197 408.539 764.316 409.658 764.316 411.039Z" fill="#2749FF"/>
<path d="M754.816 420.539C756.197 420.539 757.316 419.419 757.316 418.039C757.316 416.658 756.197 415.539 754.816 415.539C753.435 415.539 752.316 416.658 752.316 418.039C752.316 419.419 753.435 420.539 754.816 420.539Z" fill="#2749FF"/>
<path d="M764.316 418.039C764.316 419.419 763.197 420.539 761.816 420.539C760.435 420.539 759.316 419.419 759.316 418.039C759.316 416.658 760.435 415.539 761.816 415.539C763.197 415.539 764.316 416.658 764.316 418.039Z" fill="#2749FF"/>
<path d="M768.816 420.539C770.197 420.539 771.316 419.419 771.316 418.039C771.316 416.658 770.197 415.539 768.816 415.539C767.435 415.539 766.316 416.658 766.316 418.039C766.316 419.419 767.435 420.539 768.816 420.539Z" fill="#2749FF"/>
<path d="M761.816 427.539C763.197 427.539 764.316 426.419 764.316 425.039C764.316 423.658 763.197 422.539 761.816 422.539C760.435 422.539 759.316 423.658 759.316 425.039C759.316 426.419 760.435 427.539 761.816 427.539Z" fill="#2749FF"/>
<path d="M771.316 425.039C771.316 426.419 770.197 427.539 768.816 427.539C767.435 427.539 766.316 426.419 766.316 425.039C766.316 423.658 767.435 422.539 768.816 422.539C770.197 422.539 771.316 423.658 771.316 425.039Z" fill="#2749FF"/>
<path d="M764.316 432.039C764.316 433.419 763.197 434.539 761.816 434.539C760.435 434.539 759.316 433.419 759.316 432.039C759.316 430.658 760.435 429.539 761.816 429.539C763.197 429.539 764.316 430.658 764.316 432.039Z" fill="#2749FF"/>
<path d="M768.816 434.539C770.197 434.539 771.316 433.419 771.316 432.039C771.316 430.658 770.197 429.539 768.816 429.539C767.435 429.539 766.316 430.658 766.316 432.039C766.316 433.419 767.435 434.539 768.816 434.539Z" fill="#2749FF"/>
<path d="M764.316 439.039C764.316 440.419 763.197 441.539 761.816 441.539C760.435 441.539 759.316 440.419 759.316 439.039C759.316 437.658 760.435 436.539 761.816 436.539C763.197 436.539 764.316 437.658 764.316 439.039Z" fill="#2749FF"/>
<path d="M768.816 441.539C770.197 441.539 771.316 440.419 771.316 439.039C771.316 437.658 770.197 436.539 768.816 436.539C767.435 436.539 766.316 437.658 766.316 439.039C766.316 440.419 767.435 441.539 768.816 441.539Z" fill="#2749FF"/>
<path d="M778.316 439.039C778.316 440.419 777.197 441.539 775.816 441.539C774.435 441.539 773.316 440.419 773.316 439.039C773.316 437.658 774.435 436.539 775.816 436.539C777.197 436.539 778.316 437.658 778.316 439.039Z" fill="#2749FF"/>
<path d="M761.816 448.539C763.197 448.539 764.316 447.419 764.316 446.039C764.316 444.658 763.197 443.539 761.816 443.539C760.435 443.539 759.316 444.658 759.316 446.039C759.316 447.419 760.435 448.539 761.816 448.539Z" fill="#2749FF"/>
<path d="M771.316 446.039C771.316 447.419 770.197 448.539 768.816 448.539C767.435 448.539 766.316 447.419 766.316 446.039C766.316 444.658 767.435 443.539 768.816 443.539C770.197 443.539 771.316 444.658 771.316 446.039Z" fill="#2749FF"/>
<path d="M775.816 448.539C777.197 448.539 778.316 447.419 778.316 446.039C778.316 444.658 777.197 443.539 775.816 443.539C774.435 443.539 773.316 444.658 773.316 446.039C773.316 447.419 774.435 448.539 775.816 448.539Z" fill="#2749FF"/>
<path d="M768.816 455.539C770.197 455.539 771.316 454.419 771.316 453.039C771.316 451.658 770.197 450.539 768.816 450.539C767.435 450.539 766.316 451.658 766.316 453.039C766.316 454.419 767.435 455.539 768.816 455.539Z" fill="#2749FF"/>
<path d="M778.316 453.039C778.316 454.419 777.197 455.539 775.816 455.539C774.435 455.539 773.316 454.419 773.316 453.039C773.316 451.658 774.435 450.539 775.816 450.539C777.197 450.539 778.316 451.658 778.316 453.039Z" fill="#2749FF"/>
<path d="M771.316 460.039C771.316 461.419 770.197 462.539 768.816 462.539C767.435 462.539 766.316 461.419 766.316 460.039C766.316 458.658 767.435 457.539 768.816 457.539C770.197 457.539 771.316 458.658 771.316 460.039Z" fill="#2749FF"/>
<path d="M775.816 462.539C777.197 462.539 778.316 461.419 778.316 460.039C778.316 458.658 777.197 457.539 775.816 457.539C774.435 457.539 773.316 458.658 773.316 460.039C773.316 461.419 774.435 462.539 775.816 462.539Z" fill="#2749FF"/>
<path d="M785.316 460.039C785.316 461.419 784.197 462.539 782.816 462.539C781.435 462.539 780.316 461.419 780.316 460.039C780.316 458.658 781.435 457.539 782.816 457.539C784.197 457.539 785.316 458.658 785.316 460.039Z" fill="#2749FF"/>
<path d="M771.316 467.039C771.316 468.419 770.197 469.539 768.816 469.539C767.435 469.539 766.316 468.419 766.316 467.039C766.316 465.658 767.435 464.539 768.816 464.539C770.197 464.539 771.316 465.658 771.316 467.039Z" fill="#2749FF"/>
<path d="M775.816 469.539C777.197 469.539 778.316 468.419 778.316 467.039C778.316 465.658 777.197 464.539 775.816 464.539C774.435 464.539 773.316 465.658 773.316 467.039C773.316 468.419 774.435 469.539 775.816 469.539Z" fill="#2749FF"/>
<path d="M785.316 467.039C785.316 468.419 784.197 469.539 782.816 469.539C781.435 469.539 780.316 468.419 780.316 467.039C780.316 465.658 781.435 464.539 782.816 464.539C784.197 464.539 785.316 465.658 785.316 467.039Z" fill="#2749FF"/>
<path d="M771.316 474.039C771.316 475.419 770.197 476.539 768.816 476.539C767.435 476.539 766.316 475.419 766.316 474.039C766.316 472.658 767.435 471.539 768.816 471.539C770.197 471.539 771.316 472.658 771.316 474.039Z" fill="#2749FF"/>
<path d="M775.816 476.539C777.197 476.539 778.316 475.419 778.316 474.039C778.316 472.658 777.197 471.539 775.816 471.539C774.435 471.539 773.316 472.658 773.316 474.039C773.316 475.419 774.435 476.539 775.816 476.539Z" fill="#2749FF"/>
<path d="M785.316 474.039C785.316 475.419 784.197 476.539 782.816 476.539C781.435 476.539 780.316 475.419 780.316 474.039C780.316 472.658 781.435 471.539 782.816 471.539C784.197 471.539 785.316 472.658 785.316 474.039Z" fill="#2749FF"/>
<path d="M771.316 481.039C771.316 482.419 770.197 483.539 768.816 483.539C767.435 483.539 766.316 482.419 766.316 481.039C766.316 479.658 767.435 478.539 768.816 478.539C770.197 478.539 771.316 479.658 771.316 481.039Z" fill="#2749FF"/>
<path d="M775.816 483.539C777.197 483.539 778.316 482.419 778.316 481.039C778.316 479.658 777.197 478.539 775.816 478.539C774.435 478.539 773.316 479.658 773.316 481.039C773.316 482.419 774.435 483.539 775.816 483.539Z" fill="#2749FF"/>
<path d="M785.316 481.039C785.316 482.419 784.197 483.539 782.816 483.539C781.435 483.539 780.316 482.419 780.316 481.039C780.316 479.658 781.435 478.539 782.816 478.539C784.197 478.539 785.316 479.658 785.316 481.039Z" fill="#2749FF"/>
<path d="M771.316 488.039C771.316 489.419 770.197 490.539 768.816 490.539C767.435 490.539 766.316 489.419 766.316 488.039C766.316 486.658 767.435 485.539 768.816 485.539C770.197 485.539 771.316 486.658 771.316 488.039Z" fill="#2749FF"/>
<path d="M775.816 490.539C777.197 490.539 778.316 489.419 778.316 488.039C778.316 486.658 777.197 485.539 775.816 485.539C774.435 485.539 773.316 486.658 773.316 488.039C773.316 489.419 774.435 490.539 775.816 490.539Z" fill="#2749FF"/>
<path d="M785.316 488.039C785.316 489.419 784.197 490.539 782.816 490.539C781.435 490.539 780.316 489.419 780.316 488.039C780.316 486.658 781.435 485.539 782.816 485.539C784.197 485.539 785.316 486.658 785.316 488.039Z" fill="#2749FF"/>
<path d="M771.316 495.039C771.316 496.419 770.197 497.539 768.816 497.539C767.435 497.539 766.316 496.419 766.316 495.039C766.316 493.658 767.435 492.539 768.816 492.539C770.197 492.539 771.316 493.658 771.316 495.039Z" fill="#2749FF"/>
<path d="M782 537C783.38 537 784.5 535.881 784.5 534.5C784.5 533.119 783.38 532 782 532H781.996C781.194 532.625 780.39 533.246 779.582 533.861C779.528 534.065 779.5 534.279 779.5 534.5C779.5 535.881 780.619 537 782 537Z" fill="#2749FF"/>
<path d="M766.279 543.314C767.634 542.421 768.984 541.51 770.326 540.583C770.438 540.867 770.5 541.176 770.5 541.5C770.5 542.881 769.38 544 768 544C767.333 544 766.727 543.739 766.279 543.314Z" fill="#2749FF"/>
<path d="M758.519 548.184C759.635 547.519 760.746 546.841 761.855 546.15C762.814 546.499 763.5 547.419 763.5 548.5C763.5 549.881 762.38 551 761 551C759.619 551 758.5 549.881 758.5 548.5C758.5 548.393 758.506 548.288 758.519 548.184Z" fill="#2749FF"/>
<path d="M775 544C776.38 544 777.5 542.881 777.5 541.5C777.5 540.119 776.38 539 775 539C773.619 539 772.5 540.119 772.5 541.5C772.5 542.881 773.619 544 775 544Z" fill="#2749FF"/>
<path d="M784.5 541.5C784.5 542.881 783.38 544 782 544C780.619 544 779.5 542.881 779.5 541.5C779.5 540.119 780.619 539 782 539C783.38 539 784.5 540.119 784.5 541.5Z" fill="#2749FF"/>
<path d="M770.5 548.5C770.5 549.881 769.38 551 768 551C766.619 551 765.5 549.881 765.5 548.5C765.5 547.119 766.619 546 768 546C769.38 546 770.5 547.119 770.5 548.5Z" fill="#2749FF"/>
<path d="M775 551C776.38 551 777.5 549.881 777.5 548.5C777.5 547.119 776.38 546 775 546C773.619 546 772.5 547.119 772.5 548.5C772.5 549.881 773.619 551 775 551Z" fill="#2749FF"/>
<path d="M784.5 548.5C784.5 549.881 783.38 551 782 551C780.619 551 779.5 549.881 779.5 548.5C779.5 547.119 780.619 546 782 546C783.38 546 784.5 547.119 784.5 548.5Z" fill="#2749FF"/>
<path d="M763.5 555.5C763.5 556.881 762.38 558 761 558C759.619 558 758.5 556.881 758.5 555.5C758.5 554.119 759.619 553 761 553C762.38 553 763.5 554.119 763.5 555.5Z" fill="#2749FF"/>
<path d="M768 558C769.38 558 770.5 556.881 770.5 555.5C770.5 554.119 769.38 553 768 553C766.619 553 765.5 554.119 765.5 555.5C765.5 556.881 766.619 558 768 558Z" fill="#2749FF"/>
<path d="M777.5 555.5C777.5 556.881 776.38 558 775 558C773.619 558 772.5 556.881 772.5 555.5C772.5 554.119 773.619 553 775 553C776.38 553 777.5 554.119 777.5 555.5Z" fill="#2749FF"/>
<path d="M782 558C783.38 558 784.5 556.881 784.5 555.5C784.5 554.119 783.38 553 782 553C780.619 553 779.5 554.119 779.5 555.5C779.5 556.881 780.619 558 782 558Z" fill="#2749FF"/>
<path d="M756.5 562.5C756.5 563.881 755.38 565 754 565C752.619 565 751.5 563.881 751.5 562.5C751.5 561.119 752.619 560 754 560C755.38 560 756.5 561.119 756.5 562.5Z" fill="#2749FF"/>
<path d="M761 565C762.38 565 763.5 563.881 763.5 562.5C763.5 561.119 762.38 560 761 560C759.619 560 758.5 561.119 758.5 562.5C758.5 563.881 759.619 565 761 565Z" fill="#2749FF"/>
<path d="M770.5 562.5C770.5 563.881 769.38 565 768 565C766.619 565 765.5 563.881 765.5 562.5C765.5 561.119 766.619 560 768 560C769.38 560 770.5 561.119 770.5 562.5Z" fill="#2749FF"/>
<path d="M775 565C776.38 565 777.5 563.881 777.5 562.5C777.5 561.119 776.38 560 775 560C773.619 560 772.5 561.119 772.5 562.5C772.5 563.881 773.619 565 775 565Z" fill="#2749FF"/>
<path d="M756.5 569.5C756.5 570.881 755.38 572 754 572C752.619 572 751.5 570.881 751.5 569.5C751.5 568.119 752.619 567 754 567C755.38 567 756.5 568.119 756.5 569.5Z" fill="#2749FF"/>
<path d="M761 572C762.38 572 763.5 570.881 763.5 569.5C763.5 568.119 762.38 567 761 567C759.619 567 758.5 568.119 758.5 569.5C758.5 570.881 759.619 572 761 572Z" fill="#2749FF"/>
<path d="M770.5 569.5C770.5 570.881 769.38 572 768 572C766.619 572 765.5 570.881 765.5 569.5C765.5 568.119 766.619 567 768 567C769.38 567 770.5 568.119 770.5 569.5Z" fill="#2749FF"/>
<path d="M775 572C776.38 572 777.5 570.881 777.5 569.5C777.5 568.119 776.38 567 775 567C773.619 567 772.5 568.119 772.5 569.5C772.5 570.881 773.619 572 775 572Z" fill="#2749FF"/>
<path d="M754 579C755.38 579 756.5 577.881 756.5 576.5C756.5 575.119 755.38 574 754 574C752.619 574 751.5 575.119 751.5 576.5C751.5 577.881 752.619 579 754 579Z" fill="#2749FF"/>
<path d="M763.5 576.5C763.5 577.881 762.38 579 761 579C759.619 579 758.5 577.881 758.5 576.5C758.5 575.119 759.619 574 761 574C762.38 574 763.5 575.119 763.5 576.5Z" fill="#2749FF"/>
<path d="M768 579C769.38 579 770.5 577.881 770.5 576.5C770.5 575.119 769.38 574 768 574C766.619 574 765.5 575.119 765.5 576.5C765.5 577.881 766.619 579 768 579Z" fill="#2749FF"/>
<path d="M777.5 576.5C777.5 577.881 776.38 579 775 579C773.619 579 772.5 577.881 772.5 576.5C772.5 575.119 773.619 574 775 574C776.38 574 777.5 575.119 777.5 576.5Z" fill="#2749FF"/>
<path d="M747 586C748.38 586 749.5 584.881 749.5 583.5C749.5 582.119 748.38 581 747 581C745.619 581 744.5 582.119 744.5 583.5C744.5 584.881 745.619 586 747 586Z" fill="#2749FF"/>
<path d="M756.5 583.5C756.5 584.881 755.38 586 754 586C752.619 586 751.5 584.881 751.5 583.5C751.5 582.119 752.619 581 754 581C755.38 581 756.5 582.119 756.5 583.5Z" fill="#2749FF"/>
<path d="M761 586C762.38 586 763.5 584.881 763.5 583.5C763.5 582.119 762.38 581 761 581C759.619 581 758.5 582.119 758.5 583.5C758.5 584.881 759.619 586 761 586Z" fill="#2749FF"/>
<path d="M770.5 583.5C770.5 584.881 769.38 586 768 586C766.619 586 765.5 584.881 765.5 583.5C765.5 582.119 766.619 581 768 581C769.38 581 770.5 582.119 770.5 583.5Z" fill="#2749FF"/>
<path d="M775 586C776.38 586 777.5 584.881 777.5 583.5C777.5 582.119 776.38 581 775 581C773.619 581 772.5 582.119 772.5 583.5C772.5 584.881 773.619 586 775 586Z" fill="#2749FF"/>
<path d="M747 593C748.38 593 749.5 591.881 749.5 590.5C749.5 589.119 748.38 588 747 588C745.619 588 744.5 589.119 744.5 590.5C744.5 591.881 745.619 593 747 593Z" fill="#2749FF"/>
<path d="M756.5 590.5C756.5 591.881 755.38 593 754 593C752.619 593 751.5 591.881 751.5 590.5C751.5 589.119 752.619 588 754 588C755.38 588 756.5 589.119 756.5 590.5Z" fill="#2749FF"/>
<path d="M761 593C762.38 593 763.5 591.881 763.5 590.5C763.5 589.119 762.38 588 761 588C759.619 588 758.5 589.119 758.5 590.5C758.5 591.881 759.619 593 761 593Z" fill="#2749FF"/>
<path d="M770.5 590.5C770.5 591.881 769.38 593 768 593C766.619 593 765.5 591.881 765.5 590.5C765.5 589.119 766.619 588 768 588C769.38 588 770.5 589.119 770.5 590.5Z" fill="#2749FF"/>
<path d="M740 600C741.38 600 742.5 598.881 742.5 597.5C742.5 596.119 741.38 595 740 595C738.619 595 737.5 596.119 737.5 597.5C737.5 598.881 738.619 600 740 600Z" fill="#2749FF"/>
<path d="M749.5 597.5C749.5 598.881 748.38 600 747 600C745.619 600 744.5 598.881 744.5 597.5C744.5 596.119 745.619 595 747 595C748.38 595 749.5 596.119 749.5 597.5Z" fill="#2749FF"/>
<path d="M754 600C755.38 600 756.5 598.881 756.5 597.5C756.5 596.119 755.38 595 754 595C752.619 595 751.5 596.119 751.5 597.5C751.5 598.881 752.619 600 754 600Z" fill="#2749FF"/>
<path d="M763.5 597.5C763.5 598.881 762.38 600 761 600C759.619 600 758.5 598.881 758.5 597.5C758.5 596.119 759.619 595 761 595C762.38 595 763.5 596.119 763.5 597.5Z" fill="#2749FF"/>
<path d="M768 600C769.38 600 770.5 598.881 770.5 597.5C770.5 596.119 769.38 595 768 595C766.619 595 765.5 596.119 765.5 597.5C765.5 598.881 766.619 600 768 600Z" fill="#2749FF"/>
<path d="M740 607C741.38 607 742.5 605.881 742.5 604.5C742.5 603.119 741.38 602 740 602C738.619 602 737.5 603.119 737.5 604.5C737.5 605.881 738.619 607 740 607Z" fill="#2749FF"/>
<path d="M749.5 604.5C749.5 605.881 748.38 607 747 607C745.619 607 744.5 605.881 744.5 604.5C744.5 603.119 745.619 602 747 602C748.38 602 749.5 603.119 749.5 604.5Z" fill="#2749FF"/>
<path d="M754 607C755.38 607 756.5 605.881 756.5 604.5C756.5 603.119 755.38 602 754 602C752.619 602 751.5 603.119 751.5 604.5C751.5 605.881 752.619 607 754 607Z" fill="#2749FF"/>
<path d="M763.5 604.5C763.5 605.881 762.38 607 761 607C759.619 607 758.5 605.881 758.5 604.5C758.5 603.119 759.619 602 761 602C762.38 602 763.5 603.119 763.5 604.5Z" fill="#2749FF"/>
<path d="M742.5 611.5C742.5 612.881 741.38 614 740 614C738.619 614 737.5 612.881 737.5 611.5C737.5 610.119 738.619 609 740 609C741.38 609 742.5 610.119 742.5 611.5Z" fill="#2749FF"/>
<path d="M747 614C748.38 614 749.5 612.881 749.5 611.5C749.5 610.119 748.38 609 747 609C745.619 609 744.5 610.119 744.5 611.5C744.5 612.881 745.619 614 747 614Z" fill="#2749FF"/>
<path d="M756.5 611.5C756.5 612.881 755.38 614 754 614C752.619 614 751.5 612.881 751.5 611.5C751.5 610.119 752.619 609 754 609C755.38 609 756.5 610.119 756.5 611.5Z" fill="#2749FF"/>
<path d="M761 614C762.38 614 763.5 612.881 763.5 611.5C763.5 610.119 762.38 609 761 609C759.619 609 758.5 610.119 758.5 611.5C758.5 612.881 759.619 614 761 614Z" fill="#2749FF"/>
<path d="M733 621C734.38 621 735.5 619.881 735.5 618.5C735.5 617.119 734.38 616 733 616C731.619 616 730.5 617.119 730.5 618.5C730.5 619.881 731.619 621 733 621Z" fill="#2749FF"/>
<path d="M742.5 618.5C742.5 619.881 741.38 621 740 621C738.619 621 737.5 619.881 737.5 618.5C737.5 617.119 738.619 616 740 616C741.38 616 742.5 617.119 742.5 618.5Z" fill="#2749FF"/>
<path d="M747 621C748.38 621 749.5 619.881 749.5 618.5C749.5 617.119 748.38 616 747 616C745.619 616 744.5 617.119 744.5 618.5C744.5 619.881 745.619 621 747 621Z" fill="#2749FF"/>
<path d="M756.5 618.5C756.5 619.881 755.38 621 754 621C752.619 621 751.5 619.881 751.5 618.5C751.5 617.119 752.619 616 754 616C755.38 616 756.5 617.119 756.5 618.5Z" fill="#2749FF"/>
<path d="M726 628C727.38 628 728.5 626.881 728.5 625.5C728.5 624.119 727.38 623 726 623C724.619 623 723.5 624.119 723.5 625.5C723.5 626.881 724.619 628 726 628Z" fill="#2749FF"/>
<path d="M735.5 625.5C735.5 626.881 734.38 628 733 628C731.619 628 730.5 626.881 730.5 625.5C730.5 624.119 731.619 623 733 623C734.38 623 735.5 624.119 735.5 625.5Z" fill="#2749FF"/>
<path d="M740 628C741.38 628 742.5 626.881 742.5 625.5C742.5 624.119 741.38 623 740 623C738.619 623 737.5 624.119 737.5 625.5C737.5 626.881 738.619 628 740 628Z" fill="#2749FF"/>
<path d="M749.5 625.5C749.5 626.881 748.38 628 747 628C745.619 628 744.5 626.881 744.5 625.5C744.5 624.119 745.619 623 747 623C748.38 623 749.5 624.119 749.5 625.5Z" fill="#2749FF"/>
<path d="M754 628C755.38 628 756.5 626.881 756.5 625.5C756.5 624.119 755.38 623 754 623C752.619 623 751.5 624.119 751.5 625.5C751.5 626.881 752.619 628 754 628Z" fill="#2749FF"/>
<path d="M726 635C727.38 635 728.5 633.881 728.5 632.5C728.5 631.119 727.38 630 726 630C724.619 630 723.5 631.119 723.5 632.5C723.5 633.881 724.619 635 726 635Z" fill="#2749FF"/>
<path d="M735.5 632.5C735.5 633.881 734.38 635 733 635C731.619 635 730.5 633.881 730.5 632.5C730.5 631.119 731.619 630 733 630C734.38 630 735.5 631.119 735.5 632.5Z" fill="#2749FF"/>
<path d="M740 635C741.38 635 742.5 633.881 742.5 632.5C742.5 631.119 741.38 630 740 630C738.619 630 737.5 631.119 737.5 632.5C737.5 633.881 738.619 635 740 635Z" fill="#2749FF"/>
<path d="M749.5 632.5C749.5 633.881 748.38 635 747 635C745.619 635 744.5 633.881 744.5 632.5C744.5 631.119 745.619 630 747 630C748.38 630 749.5 631.119 749.5 632.5Z" fill="#2749FF"/>
<path d="M721.5 639.5C721.5 640.881 720.38 642 719 642C717.619 642 716.5 640.881 716.5 639.5C716.5 638.119 717.619 637 719 637C720.38 637 721.5 638.119 721.5 639.5Z" fill="#2749FF"/>
<path d="M726 642C727.38 642 728.5 640.881 728.5 639.5C728.5 638.119 727.38 637 726 637C724.619 637 723.5 638.119 723.5 639.5C723.5 640.881 724.619 642 726 642Z" fill="#2749FF"/>
<path d="M735.5 639.5C735.5 640.881 734.38 642 733 642C731.619 642 730.5 640.881 730.5 639.5C730.5 638.119 731.619 637 733 637C734.38 637 735.5 638.119 735.5 639.5Z" fill="#2749FF"/>
<path d="M740 642C741.38 642 742.5 640.881 742.5 639.5C742.5 638.119 741.38 637 740 637C738.619 637 737.5 638.119 737.5 639.5C737.5 640.881 738.619 642 740 642Z" fill="#2749FF"/>
<path d="M714.5 646.5C714.5 647.881 713.38 649 712 649C710.619 649 709.5 647.881 709.5 646.5C709.5 645.119 710.619 644 712 644C713.38 644 714.5 645.119 714.5 646.5Z" fill="#2749FF"/>
<path d="M719 649C720.38 649 721.5 647.881 721.5 646.5C721.5 645.119 720.38 644 719 644C717.619 644 716.5 645.119 716.5 646.5C716.5 647.881 717.619 649 719 649Z" fill="#2749FF"/>
<path d="M728.5 646.5C728.5 647.881 727.38 649 726 649C724.619 649 723.5 647.881 723.5 646.5C723.5 645.119 724.619 644 726 644C727.38 644 728.5 645.119 728.5 646.5Z" fill="#2749FF"/>
<path d="M733 649C734.38 649 735.5 647.881 735.5 646.5C735.5 645.119 734.38 644 733 644C731.619 644 730.5 645.119 730.5 646.5C730.5 647.881 731.619 649 733 649Z" fill="#2749FF"/>
<path d="M712 656C713.38 656 714.5 654.881 714.5 653.5C714.5 652.119 713.38 651 712 651C710.619 651 709.5 652.119 709.5 653.5C709.5 654.881 710.619 656 712 656Z" fill="#2749FF"/>
<path d="M721.5 653.5C721.5 654.881 720.38 656 719 656C717.619 656 716.5 654.881 716.5 653.5C716.5 652.119 717.619 651 719 651C720.38 651 721.5 652.119 721.5 653.5Z" fill="#2749FF"/>
<path d="M726 656C727.38 656 728.5 654.881 728.5 653.5C728.5 652.119 727.38 651 726 651C724.619 651 723.5 652.119 723.5 653.5C723.5 654.881 724.619 656 726 656Z" fill="#2749FF"/>
<path d="M735.5 653.5C735.5 654.881 734.38 656 733 656C731.619 656 730.5 654.881 730.5 653.5C730.5 652.119 731.619 651 733 651C734.38 651 735.5 652.119 735.5 653.5Z" fill="#2749FF"/>
<path d="M707.5 660.5C707.5 661.881 706.38 663 705 663C703.619 663 702.5 661.881 702.5 660.5C702.5 659.119 703.619 658 705 658C706.38 658 707.5 659.119 707.5 660.5Z" fill="#2749FF"/>
<path d="M712 663C713.38 663 714.5 661.881 714.5 660.5C714.5 659.119 713.38 658 712 658C710.619 658 709.5 659.119 709.5 660.5C709.5 661.881 710.619 663 712 663Z" fill="#2749FF"/>
<path d="M721.5 660.5C721.5 661.881 720.38 663 719 663C717.619 663 716.5 661.881 716.5 660.5C716.5 659.119 717.619 658 719 658C720.38 658 721.5 659.119 721.5 660.5Z" fill="#2749FF"/>
<path d="M726 663C727.38 663 728.5 661.881 728.5 660.5C728.5 659.119 727.38 658 726 658C724.619 658 723.5 659.119 723.5 660.5C723.5 661.881 724.619 663 726 663Z" fill="#2749FF"/>
<path d="M698 670C699.38 670 700.5 668.881 700.5 667.5C700.5 666.119 699.38 665 698 665C696.619 665 695.5 666.119 695.5 667.5C695.5 668.881 696.619 670 698 670Z" fill="#2749FF"/>
<path d="M707.5 667.5C707.5 668.881 706.38 670 705 670C703.619 670 702.5 668.881 702.5 667.5C702.5 666.119 703.619 665 705 665C706.38 665 707.5 666.119 707.5 667.5Z" fill="#2749FF"/>
<path d="M712 670C713.38 670 714.5 668.881 714.5 667.5C714.5 666.119 713.38 665 712 665C710.619 665 709.5 666.119 709.5 667.5C709.5 668.881 710.619 670 712 670Z" fill="#2749FF"/>
<path d="M721.5 667.5C721.5 668.881 720.38 670 719 670C717.619 670 716.5 668.881 716.5 667.5C716.5 666.119 717.619 665 719 665C720.38 665 721.5 666.119 721.5 667.5Z" fill="#2749FF"/>
<path d="M693.5 674.5C693.5 675.881 692.38 677 691 677C689.619 677 688.5 675.881 688.5 674.5C688.5 673.119 689.619 672 691 672C692.38 672 693.5 673.119 693.5 674.5Z" fill="#2749FF"/>
<path d="M698 677C699.38 677 700.5 675.881 700.5 674.5C700.5 673.119 699.38 672 698 672C696.619 672 695.5 673.119 695.5 674.5C695.5 675.881 696.619 677 698 677Z" fill="#2749FF"/>
<path d="M707.5 674.5C707.5 675.881 706.38 677 705 677C703.619 677 702.5 675.881 702.5 674.5C702.5 673.119 703.619 672 705 672C706.38 672 707.5 673.119 707.5 674.5Z" fill="#2749FF"/>
<path d="M712 677C713.38 677 714.5 675.881 714.5 674.5C714.5 673.119 713.38 672 712 672C710.619 672 709.5 673.119 709.5 674.5C709.5 675.881 710.619 677 712 677Z" fill="#2749FF"/>
<path d="M684 684C685.38 684 686.5 682.881 686.5 681.5C686.5 680.119 685.38 679 684 679C682.619 679 681.5 680.119 681.5 681.5C681.5 682.881 682.619 684 684 684Z" fill="#2749FF"/>
<path d="M693.5 681.5C693.5 682.881 692.38 684 691 684C689.619 684 688.5 682.881 688.5 681.5C688.5 680.119 689.619 679 691 679C692.38 679 693.5 680.119 693.5 681.5Z" fill="#2749FF"/>
<path d="M698 684C699.38 684 700.5 682.881 700.5 681.5C700.5 680.119 699.38 679 698 679C696.619 679 695.5 680.119 695.5 681.5C695.5 682.881 696.619 684 698 684Z" fill="#2749FF"/>
<path d="M707.5 681.5C707.5 682.881 706.38 684 705 684C703.619 684 702.5 682.881 702.5 681.5C702.5 680.119 703.619 679 705 679C706.38 679 707.5 680.119 707.5 681.5Z" fill="#2749FF"/>
<path d="M679.5 688.5C679.5 689.881 678.38 691 677 691C675.619 691 674.5 689.881 674.5 688.5C674.5 687.119 675.619 686 677 686C678.38 686 679.5 687.119 679.5 688.5Z" fill="#2749FF"/>
<path d="M684 691C685.38 691 686.5 689.881 686.5 688.5C686.5 687.119 685.38 686 684 686C682.619 686 681.5 687.119 681.5 688.5C681.5 689.881 682.619 691 684 691Z" fill="#2749FF"/>
<path d="M693.5 688.5C693.5 689.881 692.38 691 691 691C689.619 691 688.5 689.881 688.5 688.5C688.5 687.119 689.619 686 691 686C692.38 686 693.5 687.119 693.5 688.5Z" fill="#2749FF"/>
<path d="M289.329 448.479L288.633 443.527C287.426 443.704 286.5 444.744 286.5 446C286.5 447.381 287.619 448.5 289 448.5C289.112 448.5 289.221 448.493 289.329 448.479Z" fill="#2749FF"/>
<path d="M290.267 455.155L289.624 450.578C289.425 450.527 289.216 450.5 289 450.5C287.619 450.5 286.5 451.619 286.5 453C286.5 454.381 287.619 455.5 289 455.5C289.463 455.5 289.896 455.374 290.267 455.155Z" fill="#2749FF"/>
<path d="M291.132 461.307L290.689 458.157C290.244 457.749 289.651 457.5 289 457.5C287.619 457.5 286.5 458.619 286.5 460C286.5 461.381 287.619 462.5 289 462.5C289.902 462.5 290.692 462.023 291.132 461.307Z" fill="#2749FF"/>
<path d="M294.133 482.663L293.747 479.915C293.589 480.243 293.5 480.611 293.5 481C293.5 481.638 293.739 482.221 294.133 482.663Z" fill="#2749FF"/>
<path d="M295.217 490.375L294.593 485.933C293.933 486.383 293.5 487.141 293.5 488C293.5 489.107 294.22 490.046 295.217 490.375Z" fill="#2749FF"/>
<path d="M296.217 497.491L295.522 492.546C294.37 492.769 293.5 493.783 293.5 495C293.5 496.381 294.619 497.5 296 497.5C296.073 497.5 296.146 497.497 296.217 497.491Z" fill="#2749FF"/>
<path d="M284.5 446C284.5 447.381 283.381 448.5 282 448.5C280.619 448.5 279.5 447.381 279.5 446C279.5 444.619 280.619 443.5 282 443.5C283.381 443.5 284.5 444.619 284.5 446Z" fill="#2749FF"/>
<path d="M277.5 446C277.5 447.381 276.381 448.5 275 448.5C273.619 448.5 272.5 447.381 272.5 446C272.5 444.619 273.619 443.5 275 443.5C276.381 443.5 277.5 444.619 277.5 446Z" fill="#2749FF"/>
<path d="M268 455.5C269.381 455.5 270.5 454.381 270.5 453C270.5 451.619 269.381 450.5 268 450.5C266.619 450.5 265.5 451.619 265.5 453C265.5 454.381 266.619 455.5 268 455.5Z" fill="#2749FF"/>
<path d="M277.5 453C277.5 454.381 276.381 455.5 275 455.5C273.619 455.5 272.5 454.381 272.5 453C272.5 451.619 273.619 450.5 275 450.5C276.381 450.5 277.5 451.619 277.5 453Z" fill="#2749FF"/>
<path d="M282 455.5C283.381 455.5 284.5 454.381 284.5 453C284.5 451.619 283.381 450.5 282 450.5C280.619 450.5 279.5 451.619 279.5 453C279.5 454.381 280.619 455.5 282 455.5Z" fill="#2749FF"/>
<path d="M277.5 460C277.5 461.381 276.381 462.5 275 462.5C273.619 462.5 272.5 461.381 272.5 460C272.5 458.619 273.619 457.5 275 457.5C276.381 457.5 277.5 458.619 277.5 460Z" fill="#2749FF"/>
<path d="M282 462.5C283.381 462.5 284.5 461.381 284.5 460C284.5 458.619 283.381 457.5 282 457.5C280.619 457.5 279.5 458.619 279.5 460C279.5 461.381 280.619 462.5 282 462.5Z" fill="#2749FF"/>
<path d="M277.5 467C277.5 468.381 276.381 469.5 275 469.5C273.619 469.5 272.5 468.381 272.5 467C272.5 465.619 273.619 464.5 275 464.5C276.381 464.5 277.5 465.619 277.5 467Z" fill="#2749FF"/>
<path d="M282 469.5C283.381 469.5 284.5 468.381 284.5 467C284.5 465.619 283.381 464.5 282 464.5C280.619 464.5 279.5 465.619 279.5 467C279.5 468.381 280.619 469.5 282 469.5Z" fill="#2749FF"/>
<path d="M291.5 467C291.5 468.381 290.381 469.5 289 469.5C287.619 469.5 286.5 468.381 286.5 467C286.5 465.619 287.619 464.5 289 464.5C290.381 464.5 291.5 465.619 291.5 467Z" fill="#2749FF"/>
<path d="M284.5 474C284.5 475.381 283.381 476.5 282 476.5C280.619 476.5 279.5 475.381 279.5 474C279.5 472.619 280.619 471.5 282 471.5C283.381 471.5 284.5 472.619 284.5 474Z" fill="#2749FF"/>
<path d="M289 476.5C290.381 476.5 291.5 475.381 291.5 474C291.5 472.619 290.381 471.5 289 471.5C287.619 471.5 286.5 472.619 286.5 474C286.5 475.381 287.619 476.5 289 476.5Z" fill="#2749FF"/>
<path d="M289 483.5C290.381 483.5 291.5 482.381 291.5 481C291.5 479.619 290.381 478.5 289 478.5C287.619 478.5 286.5 479.619 286.5 481C286.5 482.381 287.619 483.5 289 483.5Z" fill="#2749FF"/>
<path d="M289 490.5C290.381 490.5 291.5 489.381 291.5 488C291.5 486.619 290.381 485.5 289 485.5C287.619 485.5 286.5 486.619 286.5 488C286.5 489.381 287.619 490.5 289 490.5Z" fill="#2749FF"/>
<path d="M824.646 448.475L825.342 443.523C826.561 443.69 827.5 444.735 827.5 446C827.5 447.381 826.381 448.5 825 448.5C824.88 448.5 824.761 448.491 824.646 448.475Z" fill="#2749FF"/>
<path d="M823.709 455.141L824.349 450.586C824.557 450.53 824.775 450.5 825 450.5C826.381 450.5 827.5 451.619 827.5 453C827.5 454.381 826.381 455.5 825 455.5C824.528 455.5 824.086 455.369 823.709 455.141Z" fill="#2749FF"/>
<path d="M822.847 461.272L823.281 458.185C823.729 457.76 824.334 457.5 825 457.5C826.381 457.5 827.5 458.619 827.5 460C827.5 461.381 826.381 462.5 825 462.5C824.084 462.5 823.283 462.007 822.847 461.272Z" fill="#2749FF"/>
<path d="M819.836 482.697L820.233 479.874C820.404 480.213 820.5 480.595 820.5 481C820.5 481.655 820.248 482.251 819.836 482.697Z" fill="#2749FF"/>
<path d="M818.756 490.384L819.384 485.917C820.057 486.365 820.5 487.131 820.5 488C820.5 489.117 819.767 490.063 818.756 490.384Z" fill="#2749FF"/>
<path d="M834.5 446C834.5 447.381 833.381 448.5 832 448.5C830.619 448.5 829.5 447.381 829.5 446C829.5 444.619 830.619 443.5 832 443.5C833.381 443.5 834.5 444.619 834.5 446Z" fill="#2749FF"/>
<path d="M839 448.5C840.381 448.5 841.5 447.381 841.5 446C841.5 444.619 840.381 443.5 839 443.5C837.619 443.5 836.5 444.619 836.5 446C836.5 447.381 837.619 448.5 839 448.5Z" fill="#2749FF"/>
<path d="M832 455.5C833.381 455.5 834.5 454.381 834.5 453C834.5 451.619 833.381 450.5 832 450.5C830.619 450.5 829.5 451.619 829.5 453C829.5 454.381 830.619 455.5 832 455.5Z" fill="#2749FF"/>
<path d="M841.5 453C841.5 454.381 840.381 455.5 839 455.5C837.619 455.5 836.5 454.381 836.5 453C836.5 451.619 837.619 450.5 839 450.5C840.381 450.5 841.5 451.619 841.5 453Z" fill="#2749FF"/>
<path d="M846 455.5C847.381 455.5 848.5 454.381 848.5 453C848.5 451.619 847.381 450.5 846 450.5C844.619 450.5 843.5 451.619 843.5 453C843.5 454.381 844.619 455.5 846 455.5Z" fill="#2749FF"/>
<path d="M832 462.5C833.381 462.5 834.5 461.381 834.5 460C834.5 458.619 833.381 457.5 832 457.5C830.619 457.5 829.5 458.619 829.5 460C829.5 461.381 830.619 462.5 832 462.5Z" fill="#2749FF"/>
<path d="M841.5 460C841.5 461.381 840.381 462.5 839 462.5C837.619 462.5 836.5 461.381 836.5 460C836.5 458.619 837.619 457.5 839 457.5C840.381 457.5 841.5 458.619 841.5 460Z" fill="#2749FF"/>
<path d="M825 469.5C826.381 469.5 827.5 468.381 827.5 467C827.5 465.619 826.381 464.5 825 464.5C823.619 464.5 822.5 465.619 822.5 467C822.5 468.381 823.619 469.5 825 469.5Z" fill="#2749FF"/>
<path d="M834.5 467C834.5 468.381 833.381 469.5 832 469.5C830.619 469.5 829.5 468.381 829.5 467C829.5 465.619 830.619 464.5 832 464.5C833.381 464.5 834.5 465.619 834.5 467Z" fill="#2749FF"/>
<path d="M839 469.5C840.381 469.5 841.5 468.381 841.5 467C841.5 465.619 840.381 464.5 839 464.5C837.619 464.5 836.5 465.619 836.5 467C836.5 468.381 837.619 469.5 839 469.5Z" fill="#2749FF"/>
<path d="M827.5 474C827.5 475.381 826.381 476.5 825 476.5C823.619 476.5 822.5 475.381 822.5 474C822.5 472.619 823.619 471.5 825 471.5C826.381 471.5 827.5 472.619 827.5 474Z" fill="#2749FF"/>
<path d="M832 476.5C833.381 476.5 834.5 475.381 834.5 474C834.5 472.619 833.381 471.5 832 471.5C830.619 471.5 829.5 472.619 829.5 474C829.5 475.381 830.619 476.5 832 476.5Z" fill="#2749FF"/>
<path d="M825 483.5C826.381 483.5 827.5 482.381 827.5 481C827.5 479.619 826.381 478.5 825 478.5C823.619 478.5 822.5 479.619 822.5 481C822.5 482.381 823.619 483.5 825 483.5Z" fill="#2749FF"/>
<path d="M825 490.5C826.381 490.5 827.5 489.381 827.5 488C827.5 486.619 826.381 485.5 825 485.5C823.619 485.5 822.5 486.619 822.5 488C822.5 489.381 823.619 490.5 825 490.5Z" fill="#2749FF"/>
<path d="M265.202 300.959C255.84 297.423 240.69 294.706 225.223 297.945C209.546 301.229 193.644 310.634 183.433 331.05C182.321 333.273 183.222 335.976 185.445 337.088C187.667 338.2 190.37 337.299 191.482 335.076C200.338 317.369 213.794 309.534 227.068 306.754C240.551 303.93 253.944 306.327 262.022 309.378C264.347 310.256 266.944 309.083 267.822 306.758C268.7 304.433 267.527 301.837 265.202 300.959Z" fill="#2749FF"/>
<path d="M288.565 392.029C289.677 389.806 288.776 387.103 286.553 385.991C284.33 384.879 281.627 385.78 280.516 388.003C276.293 396.446 261.968 413.411 239.196 413.411C236.711 413.411 234.696 415.426 234.696 417.911C234.696 420.396 236.711 422.411 239.196 422.411C266.651 422.411 283.486 402.183 288.565 392.029Z" fill="#2749FF"/>
<path d="M851.257 309.378C859.336 306.327 872.729 303.93 886.212 306.754C899.486 309.534 912.941 317.369 921.797 335.076C922.909 337.299 925.612 338.2 927.835 337.088C930.058 335.976 930.958 333.273 929.847 331.05C919.635 310.634 903.733 301.228 888.057 297.945C872.59 294.706 857.439 297.423 848.078 300.958C845.753 301.837 844.58 304.433 845.458 306.758C846.336 309.083 848.932 310.256 851.257 309.378Z" fill="#2749FF"/>
<path d="M832.764 388.003C831.652 385.78 828.949 384.879 826.727 385.991C824.504 387.103 823.603 389.806 824.715 392.029C829.793 402.183 846.628 422.411 874.083 422.411C876.569 422.411 878.583 420.396 878.583 417.911C878.583 415.426 876.569 413.411 874.083 413.411C851.311 413.411 836.987 396.446 832.764 388.003Z" fill="#2749FF"/>
<path fill-rule="evenodd" clip-rule="evenodd" d="M267.388 207L267.681 207C274.91 207 282.475 212.148 287.314 219.217C292.32 226.531 295.004 236.661 291.767 247.758C288.707 258.245 288.018 271.059 288.484 283.022C288.769 290.319 289.478 297.172 290.284 302.8C294.316 298.677 299.214 294.34 304.436 290.88C312.537 285.512 323.2 281.11 332.583 286.113C343.2 291.774 347.772 303.223 347.609 314.051C347.446 324.848 342.581 336.229 332.8 342.166C316.47 352.077 307.626 359.955 305.195 370.162C304.704 372.225 304.868 374.804 305.635 377.952C306.397 381.084 307.649 384.378 309.001 387.811C309.123 388.12 309.246 388.432 309.37 388.745C310.566 391.772 311.829 394.97 312.604 397.868C313.418 400.911 314.04 404.778 312.46 408.199C312.142 408.889 311.838 409.743 311.447 410.926C311.375 411.142 311.301 411.369 311.223 411.606C310.9 412.593 310.523 413.742 310.082 414.941C308.957 417.994 307.348 421.571 304.531 425.448C302.11 428.78 298.871 432.234 294.431 435.751C298.29 452.099 311.543 467.614 327.976 480.84C334.349 425.326 360.526 375.76 399.346 339.23C408.216 319.898 421.82 307.527 437.072 307.527C438.468 307.527 439.851 307.63 441.217 307.834C450.341 302.466 459.864 297.695 469.732 293.574C467.378 287.95 462.856 281.701 456.76 276.483C448.478 269.395 438.149 264.944 428.017 266.174C417.884 267.404 409.075 274.178 402.95 283.015C396.771 291.931 393.971 302.013 394.886 308.773C395.219 311.235 393.49 313.475 391.023 313.774C388.555 314.074 386.285 312.32 385.952 309.857C384.642 300.189 388.537 287.903 395.51 277.842C402.538 267.702 413.338 258.89 426.809 257.255C440.279 255.62 453.079 261.567 462.581 269.701C469.436 275.568 475.029 282.961 478.075 290.275C488.433 286.408 499.141 283.247 510.138 280.85C512.74 277.233 515.857 273.805 519.316 270.786C528.612 262.675 541.241 256.775 554.703 258.487C566.949 260.045 577.12 267.552 584.294 276.583C691.682 287.192 777.712 369.575 792.704 474.56C805.638 462.815 815.615 449.596 818.886 435.78C814.426 432.253 811.177 428.79 808.749 425.448C805.932 421.571 804.322 417.994 803.198 414.941C802.757 413.743 802.38 412.594 802.057 411.607L802.055 411.603L801.96 411.312C801.917 411.18 801.874 411.051 801.833 410.926C801.441 409.743 801.138 408.889 800.819 408.199C799.24 404.778 799.862 400.911 800.676 397.868C801.45 394.97 802.714 391.772 803.909 388.746L803.91 388.745L803.914 388.734C804.036 388.425 804.158 388.117 804.278 387.811C805.63 384.378 806.882 381.084 807.645 377.952C808.411 374.804 808.576 372.225 808.085 370.162C805.654 359.955 796.809 352.077 780.479 342.166C770.699 336.23 765.833 324.848 765.671 314.051C765.508 303.224 770.08 291.774 780.697 286.113C790.08 281.11 800.743 285.513 808.844 290.88C814.066 294.34 818.964 298.677 822.996 302.8C823.802 297.172 824.511 290.319 824.795 283.022C825.262 271.059 824.573 258.246 821.513 247.758C818.275 236.661 820.959 226.531 825.966 219.217C830.805 212.149 838.37 207 845.598 207L845.891 207C851.489 206.998 861.729 206.993 869.234 214.86C873.349 219.173 876.276 225.429 877.522 234.346C878.828 231.703 880.232 229.2 881.736 226.899C887.945 217.407 897.044 209.822 908.992 213.101C915.428 214.867 919.664 218.973 921.955 224.415C924.148 229.627 924.482 235.847 923.87 242.116C923.486 246.054 922.709 250.188 921.661 254.367C924.699 251.324 927.868 248.521 931.076 246.123C936.275 242.237 941.897 239.173 947.476 238.107C953.251 237.004 959.072 238.056 963.841 242.494C970.149 248.366 969.292 256.981 966.68 264.37C963.978 272.011 958.78 280.314 953.287 287.812C950.74 291.287 948.086 294.65 945.509 297.766C961.157 292.938 973.237 293.229 981.306 298.321C991.067 304.479 992.9 316.138 990.072 327.76C987.362 338.897 977.559 343.784 968.213 346.03C960.818 347.806 952.641 348.2 946.1 348.378C946.93 355.391 947.709 369.127 941.679 385.763C938.084 395.681 931.814 404.542 925.014 411.482C919.282 417.332 912.97 422.021 907.24 424.851C907.265 435.404 901.604 445.57 891.332 451.35C882.582 456.275 870.879 457.841 856.945 454.427C849.292 466.28 837.979 481.053 824.293 495.963C815.291 505.771 805.195 515.711 794.352 524.973C789.166 593.087 754.249 652.989 702.41 692H686.878C739.951 656.451 776.869 599.103 784.541 532.995C775.213 540.28 765.441 546.935 755.423 552.499C753.251 553.706 750.511 552.922 749.304 550.75C748.098 548.577 748.881 545.838 751.054 544.631C775.598 530.999 798.915 510.302 817.663 489.877C830.319 476.089 840.756 462.576 848.007 451.65C846.628 451.134 845.232 450.573 843.818 449.964C837.059 447.053 831.432 444.133 826.731 441.234C821.204 459.423 806.459 475.515 790.358 488.358C771.724 503.222 750.356 514.463 736.289 520.305C733.994 521.259 731.361 520.171 730.407 517.876C729.454 515.581 730.542 512.947 732.837 511.994C746.232 506.43 766.723 495.653 784.527 481.496C772.735 380.351 692.477 299.735 590.662 286.374C595.095 294.824 597.406 303.956 596.554 311.487C596.274 313.957 594.049 315.704 591.584 315.391C589.118 315.077 587.346 312.821 587.626 310.351C588.372 303.756 585.545 293.985 579.541 285.191C573.344 284.685 567.075 284.426 560.745 284.426C545.297 284.426 530.215 285.964 515.645 288.892C513.102 293.027 511.535 297.131 511.139 300.623C510.86 303.092 508.635 304.84 506.169 304.526C503.704 304.213 501.932 301.957 502.211 299.487C502.506 296.885 503.21 294.191 504.261 291.488C496.12 293.567 488.158 296.085 480.402 299.015C480.398 301.224 478.757 303.124 476.498 303.398C475.053 303.574 473.675 303.045 472.715 302.081C465.748 305.01 458.961 308.276 452.376 311.857C471.604 323.088 485.467 354.902 485.467 392.395C485.467 417.057 479.469 439.262 469.891 454.768C474.956 457.766 479.976 461.638 484.869 466.531C486.626 468.288 486.626 471.138 484.869 472.895C483.111 474.652 480.262 474.652 478.505 472.895C462.296 456.686 445.056 453.459 430.002 455.781C414.699 458.14 401.473 466.29 394.079 473.037C392.243 474.712 389.397 474.582 387.722 472.746C386.047 470.91 386.177 468.064 388.013 466.389C392.109 462.651 397.724 458.561 404.422 455.04C394.745 439.522 388.676 417.201 388.676 392.395C388.676 380.545 390.06 369.262 392.562 359.017C357.043 398.425 335.467 450.388 335.467 507.303C335.467 584.121 374.77 651.918 434.612 692H419.079C369.088 654.38 334.834 597.332 327.805 532.227C313.594 521.025 300.435 508.388 289.031 495.963C275.341 481.049 264.026 466.272 256.373 454.417C242.422 457.844 230.706 456.28 221.947 451.35C211.676 445.57 206.014 435.404 206.04 424.851C200.309 422.021 193.998 417.331 188.265 411.482C181.465 404.542 175.195 395.681 171.6 385.763C165.57 369.127 166.349 355.391 167.18 348.378C160.639 348.2 152.462 347.806 145.066 346.029C135.72 343.784 125.918 338.897 123.208 327.76C120.38 316.137 122.213 304.479 131.973 298.321C140.043 293.229 152.122 292.938 167.771 297.766C165.194 294.65 162.539 291.287 159.993 287.812C154.5 280.314 149.302 272.011 146.6 264.37C143.987 256.98 143.13 248.366 149.439 242.494C154.207 238.056 160.028 237.003 165.803 238.107C171.382 239.173 177.004 242.237 182.204 246.123C185.412 248.521 188.581 251.324 191.618 254.367C190.57 250.188 189.794 246.054 189.409 242.115C188.798 235.847 189.131 229.627 191.325 224.415C193.615 218.973 197.852 214.867 204.288 213.101C216.235 209.822 225.335 217.407 231.543 226.899C233.048 229.2 234.451 231.703 235.757 234.346C237.003 225.429 239.931 219.173 244.045 214.86C251.551 206.993 261.791 206.998 267.388 207ZM326.802 519.81C326.58 515.669 326.467 511.499 326.467 507.303C326.467 501.989 326.648 496.717 327.003 491.492C325.646 490.466 324.299 489.422 322.966 488.358C306.858 475.509 292.107 459.409 286.586 441.211C281.877 444.117 276.239 447.045 269.461 449.964C268.06 450.567 266.675 451.124 265.309 451.636C272.56 462.565 283 476.083 295.661 489.877C305.038 500.093 315.558 510.376 326.802 519.81ZM236.598 263.787C237.496 270.035 238.819 276.985 240.628 284.716C241.174 287.053 243.459 288.549 245.819 288.118C248.18 287.686 249.786 285.477 249.47 283.098C248.667 277.05 247.334 269.69 245.443 262.06C241.889 236.892 245.92 225.933 250.557 221.072C255.207 216.198 261.724 216 267.681 216C270.917 216 276.051 218.697 279.887 224.301C283.555 229.659 285.522 237.028 283.127 245.237C279.676 257.066 279.008 270.985 279.491 283.372C279.976 295.807 281.636 307.045 283.045 313.682C283.406 315.384 284.715 316.725 286.408 317.127C288.101 317.528 289.873 316.918 290.96 315.56C295.029 310.476 301.963 303.315 309.407 298.382C317.196 293.221 323.779 291.618 328.348 294.055C335.171 297.692 338.738 305.42 338.61 313.916C338.482 322.441 334.628 330.528 328.131 334.472C311.906 344.319 299.822 353.876 296.44 368.077C295.478 372.116 295.967 376.292 296.89 380.082C297.817 383.888 299.29 387.713 300.627 391.108L300.962 391.957C302.21 395.122 303.276 397.825 303.909 400.193C304.64 402.925 304.454 404.07 304.289 404.426C303.736 405.626 303.295 406.914 302.902 408.099C302.817 408.357 302.733 408.613 302.65 408.868L302.649 408.869C302.33 409.843 302.016 410.8 301.636 411.831C300.707 414.354 299.447 417.134 297.25 420.158C292.859 426.2 284.325 433.764 265.902 441.698C247.886 449.456 234.604 448.146 226.361 443.507C218.104 438.86 214.233 430.573 215.18 422.53C215.419 420.495 214.254 418.555 212.345 417.811C207.384 415.878 200.845 411.46 194.694 405.182C188.576 398.939 183.122 391.141 180.061 382.696C173.941 365.811 175.658 352.923 176.466 346.854C176.612 345.759 176.728 344.885 176.763 344.251C176.831 343.037 176.404 341.848 175.581 340.953C174.757 340.059 173.607 339.536 172.392 339.503C171.667 339.483 170.922 339.465 170.159 339.447L170.146 339.447C163.138 339.278 154.638 339.073 147.169 337.278C138.801 335.268 133.428 331.696 131.953 325.632C129.548 315.752 131.749 309.104 136.776 305.932C142.251 302.478 153.111 301.619 171.474 308.553L185.091 316.62C187.046 317.778 189.557 317.297 190.946 315.5C192.335 313.702 192.166 311.151 190.553 309.552L190.552 309.552L190.547 309.547L190.523 309.523L190.421 309.421C190.329 309.329 190.19 309.19 190.009 309.006C189.646 308.638 189.111 308.093 188.434 307.391C187.078 305.985 185.154 303.955 182.896 301.467C178.369 296.482 172.541 289.71 167.253 282.493C161.919 275.212 157.343 267.756 155.085 261.37C152.739 254.733 153.45 251.055 155.571 249.082C157.869 246.942 160.619 246.279 164.114 246.947C167.805 247.652 172.153 249.847 176.816 253.332C186.041 260.227 195.257 271.23 201.249 281.122C203.104 285.194 204.988 288.961 206.752 292.224C207.873 294.296 210.402 295.154 212.552 294.19C214.702 293.226 215.744 290.767 214.942 288.552C213.647 284.976 211.663 280.995 209.229 276.928C204.124 265.634 199.442 252.261 198.367 241.241C197.824 235.682 198.248 231.165 199.62 227.906C200.894 224.878 203.03 222.779 206.67 221.78C212.752 220.111 218.445 223.316 224.011 231.826C229.454 240.146 233.666 252.08 236.598 263.787ZM862.722 221.073C858.072 216.198 851.555 216 845.598 216C842.362 216 837.228 218.697 833.392 224.301C829.724 229.66 827.757 237.028 830.153 245.237C833.604 257.066 834.271 270.985 833.788 283.373C833.303 295.807 831.643 307.045 830.235 313.683C829.874 315.384 828.564 316.725 826.871 317.127C825.179 317.528 823.406 316.918 822.319 315.56C818.25 310.476 811.316 303.315 803.873 298.383C796.084 293.222 789.501 291.618 784.931 294.055C778.109 297.692 774.542 305.42 774.67 313.916C774.798 322.441 778.652 330.529 785.149 334.472C801.374 344.32 813.457 353.876 816.84 368.077C817.802 372.116 817.312 376.292 816.389 380.082C815.462 383.888 813.99 387.713 812.653 391.108C812.54 391.395 812.428 391.678 812.318 391.957L812.317 391.959L812.317 391.961C811.069 395.123 810.003 397.826 809.37 400.193C808.64 402.925 808.826 404.07 808.99 404.427C809.544 405.626 809.985 406.914 810.377 408.099C810.463 408.357 810.547 408.613 810.63 408.868C810.95 409.842 811.264 410.8 811.644 411.832C812.572 414.354 813.833 417.134 816.03 420.158C820.42 426.2 828.955 433.764 847.378 441.698C865.393 449.456 878.675 448.146 886.918 443.507C895.176 438.86 899.046 430.573 898.1 422.53C897.86 420.495 899.026 418.555 900.935 417.811C905.896 415.878 912.435 411.46 918.586 405.183C924.704 398.939 930.157 391.141 933.218 382.696C939.338 365.811 937.622 352.922 936.814 346.854L936.813 346.852L936.812 346.845C936.667 345.754 936.551 344.884 936.516 344.251C936.449 343.037 936.875 341.848 937.699 340.953C938.522 340.059 939.672 339.536 940.888 339.503C941.616 339.483 942.366 339.465 943.133 339.447C950.142 339.278 958.642 339.073 966.111 337.279C974.479 335.268 979.851 331.696 981.327 325.632C983.731 315.752 981.531 309.104 976.504 305.932C971.029 302.478 960.169 301.619 941.806 308.553L928.188 316.62C926.234 317.778 923.723 317.297 922.334 315.5C920.945 313.702 921.114 311.151 922.727 309.552L922.733 309.547L922.757 309.523L922.859 309.421C922.919 309.361 922.998 309.281 923.096 309.182L923.271 309.006C923.634 308.639 924.169 308.093 924.846 307.391C926.201 305.986 928.125 303.955 930.384 301.467C934.911 296.482 940.739 289.71 946.027 282.493C951.361 275.212 955.936 267.756 958.194 261.37C960.541 254.733 959.829 251.055 957.709 249.082C955.41 246.943 952.66 246.279 949.165 246.947C945.474 247.653 941.127 249.847 936.464 253.332C927.238 260.227 918.023 271.23 912.03 281.122C910.176 285.195 908.292 288.961 906.527 292.224C905.407 294.297 902.877 295.154 900.728 294.19C898.578 293.226 897.536 290.767 898.338 288.552C899.632 284.976 901.617 280.995 904.05 276.928C909.155 265.634 913.838 252.262 914.913 241.242C915.455 235.682 915.031 231.165 913.66 227.906C912.385 224.878 910.249 222.779 906.61 221.78C900.528 220.111 894.834 223.316 889.268 231.826C883.826 240.146 879.614 252.08 876.682 263.788C875.783 270.035 874.461 276.985 872.652 284.716C872.105 287.053 869.821 288.55 867.46 288.118C865.1 287.686 863.493 285.477 863.809 283.098C864.613 277.05 865.946 269.69 867.837 262.06C871.391 236.892 867.359 225.933 862.722 221.073ZM524.658 278.16C536.421 276.36 548.472 275.426 560.745 275.426C564.212 275.426 567.661 275.501 571.091 275.648C566.011 271.278 560.091 268.244 553.69 267.43C543.565 266.142 533.366 270.554 525.264 277.623C525.06 277.801 524.858 277.98 524.658 278.16ZM463.474 447.947C471.326 434.179 476.467 414.557 476.467 392.395C476.467 370.232 471.326 350.61 463.474 336.842C455.476 322.816 445.803 316.527 437.072 316.527C428.34 316.527 418.667 322.816 410.669 336.842C407.95 341.609 405.557 347.078 403.589 353.111C408.398 348.314 414.277 345.494 420.624 345.494C436.894 345.494 450.083 364.021 450.083 386.876C450.083 409.731 436.894 428.258 420.624 428.258C412.444 428.258 405.042 423.574 399.704 416.011C401.898 428.409 405.752 439.326 410.669 447.947C411.327 449.101 411.996 450.203 412.676 451.253C417.634 449.3 422.995 447.755 428.631 446.886C439.106 445.27 450.465 446.012 461.811 450.717C462.372 449.83 462.927 448.906 463.474 447.947Z" fill="#2749FF"/>
<path fill-rule="evenodd" clip-rule="evenodd" d="M509.4 454.67C499.857 439.168 493.884 417.005 493.884 392.395C493.884 345.523 515.551 307.527 542.28 307.527C569.008 307.527 590.675 345.523 590.675 392.395C590.675 417.275 584.57 439.655 574.843 455.179C579.676 458.117 584.464 461.859 589.136 466.531C590.893 468.288 590.893 471.138 589.136 472.895C587.378 474.652 584.529 474.652 582.772 472.895C566.563 456.686 549.323 453.459 534.269 455.781C518.966 458.14 505.74 466.29 498.346 473.037C496.51 474.712 493.664 474.582 491.989 472.746C490.314 470.91 490.444 468.064 492.28 466.389C496.52 462.519 502.389 458.273 509.4 454.67ZM581.675 392.395C581.675 414.557 576.534 434.179 568.682 447.947C568.071 449.02 567.449 450.047 566.819 451.03C555.228 446.046 543.602 445.235 532.898 446.886C527.546 447.711 522.443 449.146 517.696 450.961C517.081 449.999 516.474 448.995 515.877 447.947C510.96 439.326 507.106 428.409 504.912 416.01C510.25 423.573 517.652 428.258 525.833 428.258C542.102 428.258 555.291 409.731 555.291 386.876C555.291 364.021 542.102 345.494 525.833 345.494C519.485 345.494 513.606 348.315 508.797 353.112C510.764 347.079 513.158 341.609 515.877 336.842C523.875 322.816 533.548 316.527 542.28 316.527C551.011 316.527 560.684 322.816 568.682 336.842C576.534 350.61 581.675 370.232 581.675 392.395Z" fill="#2749FF"/>
<path fill-rule="evenodd" clip-rule="evenodd" d="M640.326 455.695C642.74 455.106 645.175 456.586 645.764 459C648.11 468.616 658.98 488.99 683.157 492.927C685.61 493.327 687.274 495.639 686.875 498.092C686.475 500.545 684.162 502.21 681.709 501.81C669.506 499.823 660.169 494.379 653.234 487.871C645.688 544.198 616.262 635.468 549.303 635.363C481.295 635.257 472.358 605.372 466.105 554.113C441.238 551.073 420.701 544.363 407.121 537.587C404.897 536.477 403.994 533.775 405.104 531.551C406.214 529.328 408.916 528.424 411.14 529.534C436.902 542.389 490.194 555.299 550.196 539.54C580.786 530.076 612.936 514.126 644.029 489.626C644.354 489.35 644.678 489.073 645.003 488.795C645.222 488.606 645.455 488.442 645.697 488.303C647.173 487.124 648.647 485.926 650.117 484.708C642.561 476.42 638.478 467.109 637.02 461.134C636.431 458.72 637.911 456.285 640.326 455.695ZM529.312 584.258C541.398 578.664 546.002 589.498 546.964 596.586C577.781 575.139 621.883 560.327 603.911 592.689C582.822 630.663 542.43 630.262 522.612 625.375C500.027 619.807 514.205 591.25 529.312 584.258Z" fill="#2749FF"/>
</svg>
