<svg xmlns="http://www.w3.org/2000/svg" fill="none" viewBox="0 0 185 192">
  <path fill="currentColor" d="M72.523 77.985c-1.46 0-2.882-.285-4.226-.848a1.126 1.126 0 0 1-.61-.623 1.207 1.207 0 0 1-.009-.888c.11-.288.321-.514.598-.635a1.08 1.08 0 0 1 .853-.01c3.648 1.525 7.893.433 10.339-2.654l.046-.059c2.269-2.911 2.61-6.968.869-10.344a1.203 1.203 0 0 1-.086-.886c.086-.297.276-.541.54-.687.542-.303 1.22-.09 1.512.474 2.082 4.038 1.763 8.868-.778 12.468 1.477 5.049 9.905 14.253 18.04 16.486 7.953 2.186 17.85-2.127 20.768-9.05.247-.584.907-.853 1.469-.597.562.257.821.945.574 1.53-1.659 3.944-5.139 7.207-9.796 9.188-2.775 1.183-5.785 1.808-8.699 1.808a18.42 18.42 0 0 1-4.886-.635c-5.61-1.541-10.445-5.76-12.83-8.138-2.932-2.927-5.214-6.092-6.327-8.703a11.157 11.157 0 0 1-7.358 2.8l-.003.003Zm7.829-34.281a1.07 1.07 0 0 1-.352-.059c-.583-.204-.898-.864-.705-1.47l1.966-6.109c.196-.606.83-.935 1.41-.733.585.204.9.863.704 1.47l-1.965 6.108a1.119 1.119 0 0 1-1.058.793ZM95.185 32.58c.128.054.262.078.398.078v-.003c.459 0 .878-.3 1.041-.746l1.68-4.591c.22-.6-.07-1.272-.642-1.498a1.064 1.064 0 0 0-.853.024 1.14 1.14 0 0 0-.586.647l-1.68 4.592c-.22.597.068 1.272.642 1.498Zm-17.85-22.27-6.32 2.594 1.25 3.29 6.305-2.59 1.246 3.287-6.305 2.592 1.246 3.287 6.32-2.594-1.246-3.288 3.143-1.294-1.246-3.288-3.147 1.291-1.246-3.287Z"/>
  <path fill="currentColor" fill-rule="evenodd" d="m52.251 35.977 1.464-20.6c.033-.442.31-.832.705-.993L89.546.081c.339-.136.72-.096 1.023.112l18.148 12.495 24.005 10.265c.422.18.693.604.693 1.077 0 .474-.274.895-.696 1.075l-2.746 1.16c6.929 7.54 11.356 16.931 12.844 27.092 11.29-2.072 17.015.891 18.972 2.282 1.971-1.288 7.232-3.852 13.368.247 8.797 5.88 9.597 10.622 9.629 11.935.027 1.028-.291 1.845-.898 2.303-.919.69-2.376 1.18-4.467.245.643 1.647.729 2.962.262 3.987-.58 1.279-1.526 1.523-2.04 1.554-.979.056-2.136-.548-3.512-1.836.559 2.316.309 3.935-.753 4.836-.859.73-1.856.957-2.876.66-1.085-.32-2.183-1.245-3.328-2.815-.223 1.883-.999 2.994-1.713 3.632a4.332 4.332 0 0 1-2.89 1.099l.012.018c-.791 0-1.517-.22-2.047-.622-1.614-1.226-2.724-3.201-3.253-5.764a5.924 5.924 0 0 1-2.156 1.749c-.996.473-2.109.402-3.209-.208-1.787-.987-3.286-3.241-3.649-5.486-.717-4.442 2.138-7.621 4.247-9.309-4.358-1.025-7.84-.2-9.15.208-.294 15.527-7.369 29.355-18.263 38.4 2.561 10.406-.153 18.473-2.916 23.445-3.054 5.495-6.75 8.424-6.905 8.545-1.955 1.581-3.974 2.913-6.005 3.962 2.819 5.354 5.594 10.611 7.864 14.913l.002.003.125.239c-.33-2.948-.211-6.27 1.029-9.288 4.169-10.139 9.845-11.523 11.667-11.699 1.036-1.165 4.111-4.319 6.78-3.997.495.059.919.263 1.235.585a8.957 8.957 0 0 1 1.027-.975c1.873-1.511 3.224-.684 3.717-.26.42.359.762.882 1.002 1.517.705-.969 1.398-1.616 2.073-1.935 1.431-.672 2.332-.176 2.739.177.684.594 1.038 1.644 1.05 3.123 1.484-1.031 2.84-1.26 3.973-.653a3.393 3.393 0 0 1 1.773 2.362c.299 1.423-.176 3.21-1.347 5.133.405.225.792.474 1.158.746l.241.056h-.16c1.463 1.117 2.611 2.61 3.387 4.436 1.398 3.282 1.392 7.393-.015 10.73-2.731 6.473-5.736 9.476-8.64 12.379l-.013.012c-2.492 2.493-4.848 4.849-6.981 9.379-5.118 10.876-9.54 16.566-13.909 17.906a6.778 6.778 0 0 1-1.981.307l-.006-.006a6.545 6.545 0 0 1-2.443-.481c-2.18-.18-4.39-1.069-6.529-2.637-2.368-1.74-3.815-3.692-3.932-3.85l-.006-.007a11.283 11.283 0 0 1-1.483-3.433c-2.617-3.974-4.146-7.841-4.554-11.511-.321-2.897.16-4.9.481-5.844l-12.18-24.501c-4.14-.267-8.26-1.871-12.907-5.018-1.612-1.093-4.672-3.774-7.108-5.975.956 3.26 1.796 7.437 1.197 10.801.294 2.509.556 5.233.414 5.984-.015.077-.03.164-.045.263v.004c-.155.915-.46 2.716-1.814 4.147 1.873 5.458 1.614 9.478.74 11.751-.895 2.763-4.307 5.117-9.218 6.338a24.522 24.522 0 0 1-5.814.712l.003.004c-4.405 0-9.978-1.27-14.451-6.427-3.021-3.483-3.828-9.712-2.391-18.51 1.024-6.277 2.884-11.689 3.02-12.083l.007-.022c9.57-24.287 19.186-22.104 19.587-22.002.12.023 3.268.658 4.927 4.912 1.538 1.127 3.07 2.516 4.581 3.885l.01.008c1.24 1.124 2.408 2.183 3.524 3.05 2.872 2.23 6.19 4.596 9.624 5.88l-8.725-17.55a47.327 47.327 0 0 1-14.224-7.052c-7.615-5.517-13.486-13.08-17.045-21.932-6.773 3.164-12.17 3.048-15.57 2.354a18.274 18.274 0 0 1-3.964-1.278c.08 1.223-.099 2.603-.934 3.755-1 1.374-2.695 2.074-5.035 2.074h-.006c-.503 0-1.041-.03-1.6-.096-5.428-.616-9.921-4.77-10.109-4.947a1.143 1.143 0 0 1-.179-.214c-5.734-1.257-7.572-4.002-7.815-4.404a3.098 3.098 0 0 1-.41-2.517c.332-1.297 1.447-2.399 2.464-3.169-1.03-.625-1.836-1.496-2.067-2.707-.375-1.969-.083-3.693.865-5.133.785-1.187 1.894-1.957 2.876-2.444a36.416 36.416 0 0 1-3.573-3.261C1.816 54.918.93 52.246.74 51.512l-.057-.22c-.514-1.95-2.079-7.888 2.442-10.321 1.948-1.05 3.848-1.201 5.645-.449a7.305 7.305 0 0 1 1.974 1.266c-.125-1.947.179-3.501.91-4.628.693-1.068 1.725-1.734 3.072-1.978 1.508-.273 2.942.117 4.26 1.158 3.1 2.448 5.376 8.545 6.478 17.286 2.63-1.9 5.692-1.625 8.569.826 2.28 1.941 3.384 4.127 3.286 6.492-.146 3.464-2.897 6.22-4.238 7.362 1.175 2.653 2.81 4.455 4.866 5.359 2.614 1.148 5.977.933 10.006-.641a52.545 52.545 0 0 1-1.372-11.526l-3.19 1.348a1.092 1.092 0 0 1-.42.083l-.002-.003a1.1 1.1 0 0 1-.795-.346 1.187 1.187 0 0 1-.232-1.267l10.31-25.336Zm55.956 98.413c1.927-.988 3.849-2.254 5.722-3.77.041-.031 3.545-2.842 6.346-7.898 2.459-4.436 4.873-11.546 2.888-20.721a47.863 47.863 0 0 1-9.309 5.457c.735 3.063.696 5.832.516 7.691-.223 2.291-.782 4.421-1.463 5.563-2.414 4.042-4.926 6.065-7.878 7.63 1.041 1.983 2.108 4.015 3.178 6.048Zm-4.247-8.088c2.706-1.425 4.881-3.183 7.05-6.816.648-1.088 1.96-5.77.75-11.161a46.455 46.455 0 0 1-15.52 3.107c1.724 3.394 4.549 8.819 7.72 14.87Zm-32.462 25.283c1.75-.166 3.015-.692 3.935-1.383 2.588 7.803.477 11.581-.249 12.177-.059.046-.077.04-.104.031-.472-.152-1.252-1.811-1.683-3.266a.448.448 0 0 0-.476-.325.456.456 0 0 0-.395.424l-.024.316v.003c-.101 1.306-.227 2.926-.987 3.513-.334.257-.788.316-1.39.18-1.055-.241-1.665-2.616-1.864-4.396a17.239 17.239 0 0 0-.056-.625.453.453 0 0 0-.485-.409.458.458 0 0 0-.405.492c.006.093.021.3.05.585.12 1.852-.273 3.226-1.102 3.821-.503.359-1.14.377-1.74.049-1.217-.662-1.151-3.48-1.023-4.511a.465.465 0 0 0-.378-.52.45.45 0 0 0-.506.384c-.181 1.139-1.115 2.61-2.212 2.991-.595.204-1.151.052-1.66-.452-1.748-1.746-1.296-6.65-1.29-6.7a.461.461 0 0 0-.372-.504.448.448 0 0 0-.509.353c-.255 1.139-1.204 4.222-2.522 4.804-.642.285-1.567.496-2.331-.108-1.056-.837-2.115-3.417-1.17-10.96.028-.106.552-1.94 2.539-1.652.696.1 2.144.778 3.822 1.564l.024.011c3.601 1.684 8.893 4.159 13.468 4.159l.003.003c.37 0 .735-.015 1.092-.049Zm48.908 10.783c-1.144 1.182-3.365 3.662-5.202 6.816-1.46 2.508-2.363 4.92-2.705 7.191-1.584-3.244-2.098-5.871-2.208-7.714-.157-2.644.48-4.21.534-4.343l.004-.009a1.202 1.202 0 0 0-.009-1.05l-26.345-52.993a46.793 46.793 0 0 0 9.245 1.17c3.65 7.27 14.549 27.917 21.273 40.657l.214.405.196.375 1.563 2.962.088.166c1.564 2.966 2.771 5.253 3.352 6.367ZM91.73 129.913l3.47 6.979c-3.304-.479-6.678-1.936-10.467-4.504-2.56-1.735-9.452-8.149-10.052-8.707l-.041-.039a1.09 1.09 0 0 0-1.398-.077 1.179 1.179 0 0 0-.372 1.402c1.267 3.046 4.075 11.808 1.897 15.693-1.144 2.046-5.38.161-7.414-.746-1.73-.771-4.99-2.44-7.387-4.953-2.221-2.329-3.102-4.759-2.611-7.223 1.074-5.412 4.416-13.513 9.213-13.646h.096c2.65 0 5.888 2.935 9.024 5.778l.07.064c1.246 1.13 2.423 2.198 3.59 3.101 3.593 2.787 7.868 5.78 12.382 6.878Zm60.158 4.861c.983-1.503 1.452-2.862 1.268-3.739-.077-.363-.265-.607-.613-.793-.785-.418-2.593 1.053-3.545 2.232a1.08 1.08 0 0 1-1.362.288 1.171 1.171 0 0 1-.574-1.316c.393-1.628.369-3.572.075-3.931-.048 0-.176.015-.417.13-.85.399-2.123 2.476-2.944 4.325-.039.099-.08.192-.125.284-.273.564-.922.796-1.472.524-.55-.27-.788-.935-.544-1.517l.02-.047.081-.189c.407-1.102.095-2.835-.434-3.29-.22-.189-.628.061-.931.306-1.022.822-1.772 1.984-2.303 3.078l-.036.08a1.205 1.205 0 0 1-.041.08 14.532 14.532 0 0 0-1.016 2.944c-.125.62-.717 1.025-1.315.901a1.113 1.113 0 0 1-.711-.501c-.163-.26-.22-.57-.16-.873.022-.119.368-1.814 1.301-3.716.174-.436.269-.892.277-1.142-1.368-.039-3.67 1.966-4.96 3.497-.046.07-.1.135-.161.194-.22.213-5.148 5.139-1.663 14.497.919-1.873 2.418-4.486 4.568-6.919 5.016-5.674 11.141-7.532 17.737-5.387Zm-21.547 53.352-13.264-7.93c-.343-1.85-.203-3.909.429-6.292l16.806 10.159c-1.381 1.844-2.701 3.195-3.971 4.063Zm13.016-128.469c2.192-.591 6.737-1.307 12.183.712.425.158.714.56.741 1.031.024.468-.22.904-.625 1.108l-.004.002c-.182.098-6 3.215-5.182 8.283.243 1.501 1.338 3.18 2.495 3.817.482.266.886.313 1.237.145 1.52-.724 2.471-2.529 2.822-5.365.011-.105.022-.19.029-.25v-.001l.01-.092c.086-.623.651-1.062 1.246-.985.598.08 1.032.653.967 1.279l-.005.049-.005.043-.005.044-.018.141v.001c-.113 1.137-.533 7.003 2.605 9.387.286.217 1.365.353 2.168-.362 1.202-1.071 1.323-3.492.348-6.824a60.517 60.517 0 0 1-2.326-5.748c-.193-.573.075-1.21.61-1.452s1.163-.007 1.433.532c1.047 2.111 1.847 4.071 2.371 5.82 1.754 3.7 3.453 6.025 4.66 6.378.312.093.571.025.862-.223.842-.715-.368-5.022-3.788-10.736a50.224 50.224 0 0 1-.78-1.26 1.2 1.2 0 0 1 .339-1.592 1.097 1.097 0 0 1 1.532.328l.039.061.001.003c.128.2.394.619.736 1.19 3.391 5.334 6.421 8.483 7.426 8.483h.033s.074-.044.158-.23c.285-.628-.102-2.352-2.035-5.306a35.322 35.322 0 0 0-1.273-1.81 28.11 28.11 0 0 1-1.873-2.347 1.195 1.195 0 0 1 .193-1.585c.458-.39 1.13-.34 1.529.114a41.8 41.8 0 0 1 1.87 2.331c1.065 1.19 4.548 4.793 6.436 3.52a1.22 1.22 0 0 0 .042-.402c-.081-3.022-4.381-7.223-8.607-10.046-6.242-4.17-11.283-.047-11.494.13a1.082 1.082 0 0 1-1.469-.053c-.006-.006-1.294-1.189-4.122-2.04-2.629-.793-7.118-1.45-13.764-.218.134 1.321.219 2.654.254 3.995Zm-94.546.898-.002.513c0 3.727.413 7.434 1.227 11.04 4.95-2.377 9.01-5.82 9.117-5.911l.002-.002a1.086 1.086 0 0 1 1.567.155 1.195 1.195 0 0 1-.146 1.635c-.05.043-4.952 4.244-10.795 6.778a1.074 1.074 0 0 1-.085.041c-2.948 1.266-5.657 1.907-8.057 1.907l-.003-.003c-1.653 0-3.188-.306-4.559-.907-2.828-1.245-4.981-3.746-6.403-7.442a1.178 1.178 0 0 1 .407-1.39l.007-.005c.177-.132 3.865-2.88 4-6.128.065-1.595-.765-3.14-2.472-4.591-2.394-2.04-4.633-2.06-6.653-.06a14.59 14.59 0 0 0-.424.442 1.204 1.204 0 0 1-.256.289c-1.739 2.023-2.57 4.299-2.249 5.347.327 1.077 1.252 2.114 1.835 2.056.559-.056 1.3-1.434 1.612-4.325.032-.31.178-.586.413-.777.232-.192.527-.282.821-.245.61.071 1.053.647.984 1.282-.297 2.77-1.165 6.126-3.61 6.377-1.927.192-3.596-1.743-4.178-3.662-.598-1.962.428-4.862 2.531-7.386-.921-8.764-3.079-15.246-5.805-17.395-.806-.635-1.66-.88-2.53-.721-.747.136-1.256.448-1.607.987-1.011 1.56-.38 4.604-.172 5.603l.018.087a19.86 19.86 0 0 0 .649 2.339l.008.023 6.509 19.777c.956.459 2.838 1.526 3.395 3.043.25.684.22 1.39-.092 2.037-.686 1.427-2.01 2.07-3.39 2.354.341.718.602 1.654.602 2.837 0 .715-.137 3.173-1.889 4.758a4.716 4.716 0 0 1-2.202 1.118c1.65 1.08 4.005 2.304 6.512 2.588 1.615.182 3.73.145 4.612-1.068 1.067-1.464.104-4.098.078-4.17a1.193 1.193 0 0 1 .36-1.353 1.08 1.08 0 0 1 1.35 0c.015.012 1.957 1.495 5.37 2.18 3.217.643 8.444.704 15.098-2.652a1.27 1.27 0 0 1 .14-.077c3.145-1.605 6.372-3.848 9.584-6.665a1.086 1.086 0 0 1 1.57.14 1.189 1.189 0 0 1-.133 1.637c-3.053 2.676-6.129 4.86-9.155 6.507 3.388 8.495 9.01 15.756 16.309 21.046 7.753 5.616 16.862 8.585 26.343 8.585 25.457 0 46.171-21.56 46.171-48.063 0-12.787-4.757-24.793-13.404-33.857l-15.82 6.684c2.55 2.337 5.038 5.116 6.873 7.723 3.792 5.384 4.883 10.297 5.133 13.47.294 3.765-.437 7.18-1.963 9.136-1.035 1.328-2.272 2.003-3.673 2.003h-.003a4.9 4.9 0 0 1-.473-.025c-2.646-.285-7.11-3.27-13.359-15.885-1.643-3.314-3.62-7.462-4.93-11.186l-1.593.674c2.062 2.9 4.004 6.517 5.611 10.481 4.77 11.77 4.672 21.043-.25 23.618-1.564.82-2.986 1.217-4.342 1.217h-.006c-.8 0-1.579-.145-2.32-.427-3.747-1.437-6.346-6.325-9.57-14.284-1.771-4.372-2.83-9.844-3.006-14.74L48.81 60.555Zm52.801-22.308c.951 2.696 2.485 6.273 4.828 11.002.1.203.2.403.3.602.325-.578.892-1.11 1.78-1.584 1.945-1.04 4.743.304 6.361 3.223 1.618 2.92 2.153 5.997.392 7.346-.86.66-1.603 1.04-2.255 1.201 1.91 2.352 3.638 3.702 5.026 3.85.824.09 1.517-.27 2.186-1.13 2.264-2.904 2.802-11.198-3.235-19.77-2.06-2.925-4.77-5.826-7.411-8.108l-7.972 3.368Zm5.931-5.018-6.641 2.806c-1.026-3.624-.643-5.05.116-5.506.179-.108.414-.161.702-.161v-.003c1.357 0 3.482 1.107 5.823 2.864Zm2.428-1.026c-.222-.18-.444-.357-.664-.529-2.918-2.266-6.915-4.653-9.404-3.157-1.989 1.196-2.346 3.945-1.085 8.398l-2.337.988c-.197-.238-.394-.47-.592-.693-3.063-3.468-5.98-4.839-8.217-3.858-2.343 1.03-3.489 4.941-3.633 9.808L45.043 59.635l9.145-22.475 53.975-22.197 21.181 9.055-19.373 8.185Zm-21.434 3.285c-1.128.495-2.02 3.067-2.284 6.736l8.035-3.395-.04-.047c-1.919-2.173-3.763-3.417-5.062-3.417v-.004c-.238 0-.456.044-.649.128Zm7.258 5.217-9.62 4.064c.029 3.835.684 8.443 2.29 13.021.334-.92 1.055-1.705 2.296-2.282 2.207-1.028 5.068.449 7.034 3.563 2.081 3.297 1.329 6.542-.554 8.12-1.574 1.323-2.7 1.844-3.579 1.8 1.191 1.819 2.397 3.007 3.738 3.52 1.391.533 2.991.31 4.892-.684 3.673-1.922 3.343-10.408-.803-20.64-1.631-4.027-3.612-7.661-5.694-10.482Zm9.985-27.256L89.823 2.462l-33.93 13.817L54.595 34.5l51.185-21.05ZM19.142 68.202c.054.028.111.05.17.068.941.409 2.281 1.258 2.51 1.882.03.087.024.115-.005.174-.77 1.603-4.217 1.334-6.992 1.117a59.86 59.86 0 0 0-1.535-.111c-2.721-.161-5.751-1.062-6.01-2.415-.256-1.328-.083-2.458.511-3.359.865-1.314 2.447-1.915 3.202-2.137 2.39 1.692 5.114 3.29 8.149 4.78Zm-1.262 5.73c-1.068-.004-2.164-.088-3.228-.173l-.12-.01h-.002a66.761 66.761 0 0 0-1.37-.099 18.182 18.182 0 0 1-3.415-.53c-1.11.613-2.662 1.802-2.898 2.722-.06.23-.024.424.122.644.036.055 1.852 2.789 7.932 3.684 1.198.177 2.132-.028 2.777-.613.827-.746 1.119-2.086 1.119-3.003 0-1.496-.593-2.296-.917-2.622Zm-6.173-12.81c.104.053.2.122.284.205a53.904 53.904 0 0 0 5.694 3.531l-5.38-16.352c-.961-2.91-2.594-5.09-4.37-5.832a3.789 3.789 0 0 0-1.456-.297c-.741 0-1.526.22-2.332.653-2.584 1.393-2.061 4.817-1.315 7.643l.06.23c.06.24 1.32 4.766 8.815 10.219Zm134.664 77.261c-1.815.718-3.896 1.89-5.926 3.452l15.809 9.555c.099-.225.198-.454.297-.688.737-1.746 1.011-3.749.818-5.671l-10.998-6.648Zm5.088 20.734-17.309-10.464a21.03 21.03 0 0 0-.837 1.452 75.876 75.876 0 0 1-2.126 3.783l16.007 9.677c.399-.409.796-.807 1.192-1.202l.016-.017c1.013-1.012 2.038-2.036 3.057-3.229Zm-9.747 11.761-15.87-9.592c-1.001 1.142-1.932 2.096-2.796 2.982l-.001.001c-.499.514-.976 1.003-1.43 1.493l17.416 10.528a114.805 114.805 0 0 0 1.925-3.904 32.08 32.08 0 0 1 .756-1.508Z" clip-rule="evenodd"/>
  <path fill="currentColor" d="M40.504 159.293c-.271 0-.533-.102-.735-.288-4.345-3.975-4.422-10.454-4.425-10.73 0-.309.113-.6.32-.82.212-.22.489-.344.789-.344.616 0 1.115.517 1.121 1.152 0 .056.104 5.74 3.667 9 .223.204.357.489.378.798.018.31-.078.607-.277.842a1.095 1.095 0 0 1-.838.393v-.003Zm-6.554 1.074c1.098 1.028 3.049 2.251 6.097 2.251l-.003-.006c.345 0 .702-.016 1.065-.047.613-.052 1.068-.616 1.017-1.254a1.128 1.128 0 0 0-1.204-1.058c-5.318.47-6.751-3.319-6.808-3.477-.214-.601-.853-.907-1.43-.687-.28.108-.503.322-.628.603a1.194 1.194 0 0 0-.032.889c.05.152.559 1.508 1.927 2.786Zm69.524 18.68c.208.316.553.505.921.505l-.003-.003c.227 0 .444-.068.631-.202.247-.173.413-.439.467-.743a1.176 1.176 0 0 0-.176-.869c-3.043-4.627-1.702-9.33-1.663-9.468l.001-.003c.193-.606-.125-1.266-.708-1.467-.583-.198-1.216.13-1.409.737-.075.235-1.797 5.829 1.939 11.513Zm24.783-60.176c.133.059.276.087.422.087v-.003c.455 0 .859-.285 1.032-.721 2.147-5.455 1.023-11.018.972-11.254-.131-.622-.722-1.021-1.326-.885-.601.136-.984.755-.854 1.381.012.052 1.015 5.123-.856 9.882a1.19 1.19 0 0 0 .003.888c.116.285.333.508.607.625Z"/>
</svg>
