<svg xmlns="http://www.w3.org/2000/svg" fill="none" viewBox="0 0 20 19">
  <path fill="currentColor" d="M5.5 1a.5.5 0 0 0-1 0h1Zm-1 4a.5.5 0 0 0 1 0h-1Zm11-4a.5.5 0 0 0-1 0h1Zm-1 4a.5.5 0 0 0 1 0h-1Zm-4-4a.5.5 0 0 0-1 0h1Zm-1 4a.5.5 0 0 0 1 0h-1ZM2 3.5h16v-1H2v1Zm16.5.5v13h1V4h-1ZM18 17.5H2v1h16v-1ZM1.5 17V4h-1v13h1Zm.5.5a.5.5 0 0 1-.5-.5h-1A1.5 1.5 0 0 0 2 18.5v-1Zm16.5-.5a.5.5 0 0 1-.5.5v1a1.5 1.5 0 0 0 1.5-1.5h-1ZM18 3.5a.5.5 0 0 1 .5.5h1A1.5 1.5 0 0 0 18 2.5v1Zm-16-1A1.5 1.5 0 0 0 .5 4h1a.5.5 0 0 1 .5-.5v-1ZM4.5 1v4h1V1h-1Zm10 0v4h1V1h-1Zm-5 0v4h1V1h-1ZM1 9.5h18v-1H1v1Z"/>
</svg>
