<svg xmlns="http://www.w3.org/2000/svg" fill="none" viewBox="0 0 18 18">
  <path fill="currentColor" d="M8.996 13.235c2.32 0 4.243-1.919 4.243-4.239 0-2.327-1.923-4.246-4.243-4.246-2.327 0-4.25 1.919-4.25 4.246 0 2.32 1.923 4.239 4.25 4.239Zm0-1.498c-1.507 0-2.754-1.245-2.754-2.741 0-1.503 1.247-2.749 2.754-2.749 1.5 0 2.75 1.246 2.75 2.749 0 1.496-1.25 2.74-2.75 2.74ZM9.813.813A.824.824 0 0 0 8.996 0a.823.823 0 0 0-.809.814v1.644a.82.82 0 0 0 .809.807c.445 0 .817-.37.817-.807V.814Zm3.234 3.007a.822.822 0 0 0 .004 1.142.828.828 0 0 0 1.15-.004l1.167-1.168a.817.817 0 0 0-.004-1.148.809.809 0 0 0-1.137.004l-1.18 1.174Zm4.136 5.981c.444 0 .817-.37.817-.806a.823.823 0 0 0-.817-.808h-1.64a.82.82 0 0 0-.81.808.82.82 0 0 0 .81.806h1.64Zm-2.991 3.235a.816.816 0 0 0-1.145.004.82.82 0 0 0 .004 1.14l1.182 1.173c.306.304.83.296 1.14-.012a.809.809 0 0 0-.006-1.14l-1.175-1.165Zm-4.38 2.496a.823.823 0 0 0-.816-.813.821.821 0 0 0-.809.813v1.643c0 .437.372.81.809.81a.823.823 0 0 0 .817-.81v-1.643Zm-7.187-1.338a.828.828 0 0 0-.013 1.14c.31.308.84.316 1.153.012l1.17-1.165a.815.815 0 0 0 .012-1.14.838.838 0 0 0-1.153-.005l-1.17 1.158ZM.808 8.188A.82.82 0 0 0 0 8.996a.82.82 0 0 0 .808.806H2.45c.445 0 .818-.37.818-.806a.823.823 0 0 0-.818-.808H.81Zm2.983-3.23c.314.307.838.31 1.143.005a.817.817 0 0 0 .013-1.142l-1.17-1.174a.823.823 0 0 0-1.143-.004.83.83 0 0 0-.01 1.142L3.79 4.959Z"/>
</svg>
