<svg xmlns="http://www.w3.org/2000/svg" fill="none" viewBox="0 0 18 20">
  <path fill="currentColor" d="m9.3 19-.371.335.371.41.371-.41L9.3 19ZM9.3.5C5.54.5 2.5 3.54 2.5 7.3h1c0-3.207 2.593-5.8 5.8-5.8v-1Zm6.8 6.8c0-3.76-3.04-6.8-6.8-6.8v1c3.207 0 5.8 2.593 5.8 5.8h1ZM9.3 19l.371.335.002-.002.004-.004.014-.016.054-.061.205-.235a42.342 42.342 0 0 0 2.915-3.816c.796-1.18 1.6-2.521 2.207-3.875C15.675 9.979 16.1 8.582 16.1 7.3h-1c0 1.08-.363 2.327-.94 3.617-.575 1.283-1.346 2.572-2.124 3.725a41.35 41.35 0 0 1-3.106 4.022h-.001L9.3 19ZM2.5 7.3c0 1.282.425 2.679 1.028 4.026.606 1.354 1.41 2.694 2.208 3.875a42.352 42.352 0 0 0 3.173 4.112l.014.016.004.004.001.002L9.3 19l.371-.335a.427.427 0 0 0-.016-.018 10.766 10.766 0 0 1-.247-.282 41.34 41.34 0 0 1-2.844-3.722c-.778-1.154-1.548-2.443-2.123-3.726C3.863 9.627 3.5 8.38 3.5 7.3h-1Zm6.8 1.75A1.75 1.75 0 0 1 7.55 7.3h-1a2.75 2.75 0 0 0 2.75 2.75v-1Zm1.75-1.75A1.75 1.75 0 0 1 9.3 9.05v1a2.75 2.75 0 0 0 2.75-2.75h-1ZM9.3 5.55c.966 0 1.75.784 1.75 1.75h1A2.75 2.75 0 0 0 9.3 4.55v1ZM7.55 7.3c0-.966.784-1.75 1.75-1.75v-1A2.75 2.75 0 0 0 6.55 7.3h1Z"/>
</svg>
