<svg xmlns="http://www.w3.org/2000/svg" fill="none" viewBox="0 0 48 48">
  <path fill="currentColor" d="M28 0h-4v4h4zm-4 0h-4v4h4zm-4 0h-4v4h4zm-4 0h-4v4h4zm-4 0H8v4h4zm20 4h-4v4h4zM8 4H4v4h4zm28 4h-4v4h4zM16 8h-4v4h4zM4 8H0v4h4zm32 4h-4v4h4zm-24 0H8v4h4zm-8 0H0v4h4zm32 4h-4v4h4zM4 16H0v4h4zm32 4h-4v4h4zM4 20H0v4h4zm32 4h-4v4h4zM4 24H0v4h4zm28 4h-4v4h4zM8 28H4v4h4zm32 4h-4v4h4zm-4 0h-4v4h4zm-8 0h-4v4h4zm-4 0h-4v4h4zm-4 0h-4v4h4zm-4 0h-4v4h4zm-4 0H8v4h4zm32 4h-4v4h4zm-4 0h-4v4h4zm-4 0h-4v4h4zm12 4h-4v4h4zm-4 0h-4v4h4zm-4 0h-4v4h4zm8 4h-4v4h4zm-4 0h-4v4h4z"/>
</svg>
