<svg xmlns="http://www.w3.org/2000/svg" fill="none" viewBox="0 0 48 48">
  <path fill="currentColor" d="M8 0h4v4H8zm4 0h4v4h-4zm4 0h4v4h-4zm4 0h4v4h-4zM8 4h4v4H8zm12 0h4v4h-4zM8 8h4v4H8zm12 0h4v4h-4zm12 0h4v4h-4zm4 0h4v4h-4zm4 0h4v4h-4zm4 0h4v4h-4zM8 12h4v4H8zm4 0h4v4h-4zm4 0h4v4h-4zm4 0h4v4h-4zm12 0h4v4h-4zm12 0h4v4h-4zm-12 4h4v4h-4zm12 0h4v4h-4zm-24 4h4v4h-4zm4 0h4v4h-4zm4 0h4v4h-4zm4 0h4v4h-4zm4 0h4v4h-4zm4 0h4v4h-4zm4 0h4v4h-4zm-24 4h4v4h-4zm12 0h4v4h-4zm12 0h4v4h-4zm-24 4h4v4h-4zm12 0h4v4h-4zm12 0h4v4h-4zM8 32h4v4H8zm4 0h4v4h-4zm4 0h4v4h-4zm4 0h4v4h-4zm4 0h4v4h-4zm4 0h4v4h-4zm4 0h4v4h-4zm4 0h4v4h-4zm4 0h4v4h-4zm4 0h4v4h-4zM8 36h4v4H8zm12 0h4v4h-4zm12 0h4v4h-4zm12 0h4v4h-4zM8 40h4v4H8zm12 0h4v4h-4zm12 0h4v4h-4zm12 0h4v4h-4zM8 44h4v4H8zm4 0h4v4h-4zm4 0h4v4h-4zm4 0h4v4h-4zm4 0h4v4h-4zm4 0h4v4h-4zm4 0h4v4h-4zm4 0h4v4h-4zm4 0h4v4h-4zm4 0h4v4h-4z"/>
</svg>
