<svg xmlns="http://www.w3.org/2000/svg" fill="none" viewBox="0 0 24 24">
  <path fill="currentColor" d="M8 22h2v2H8v-2Zm0-2h2v2H8v-2Zm-8 0h2v2H0v-2Zm0-2h2v2H0v-2Zm22 0h2v2h-2v-2ZM0 16h2v2H0v-2Zm2-2h2v2H2v-2Zm18 0h2v2h-2v-2Zm-2-2h2v2h-2v-2Zm-2 2h2v2h-2v-2ZM4 12h2v2H4v-2Zm0-2h2v2H4v-2Zm14 0h2v2h-2v-2ZM4 8h2v2H4V8Zm14 0h2v2h-2V8ZM4 6h2v2H4V6Zm14 0h2v2h-2V6ZM4 4h2v2H4V4Zm14 0h2v2h-2V4ZM6 2h2v2H6V2Zm10 0h2v2h-2V2ZM8 0h2v2H8V0Zm2 0h2v2h-2V0Zm2 0h2v2h-2V0Zm2 0h2v2h-2V0Zm8 16h2v2h-2v-2Zm-6 4h2v2h-2v-2Zm-6 2h2v2h-2v-2Zm0-2h2v2h-2v-2Zm-8 0h2v2H2v-2Zm16 0h2v2h-2v-2Zm-6 2h2v2h-2v-2Zm0-2h2v2h-2v-2Zm-8 0h2v2H4v-2Zm16 0h2v2h-2v-2Zm-6 2h2v2h-2v-2Zm0-2h2v2h-2v-2Zm-8 0h2v2H6v-2Zm16 0h2v2h-2v-2Z"/>
</svg>
