<svg xmlns="http://www.w3.org/2000/svg" fill="none" viewBox="0 0 24 24">
  <path fill="currentColor" d="M10 22h2v2h-2zm2 0h2v2h-2zm2-2h2v2h-2zm-4 0H8v2h2zm6-2h2v2h-2zm-8 0H6v2h2zm10-2h2v2h-2zM6 16H4v2h2zm14-2h2v2h-2zM4 14H2v2h2zm18-2h2v2h-2zM2 12H0v2h2zm20-2h2v2h-2zM2 10H0v2h2zm20-2h2v2h-2zM2 8H0v2h2zm0-2H0v2h2zm20 0h2v2h-2zm0-2h2v2h-2zM2 4H0v2h2zm18-2h2v2h-2zM4 2H2v2h2zm14-2h2v2h-2zM6 0H4v2h2zm10 0h2v2h-2zM8 0H6v2h2zm6 2h2v2h-2zm-4 0H8v2h2zm2 2h2v2h-2zm0 2h2v2h-2zm0-2h-2v2h2zm0 2h-2v2h2z"/>
</svg>
