<svg xmlns="http://www.w3.org/2000/svg" fill="none" viewBox="0 0 24 24">
  <path fill="currentColor" d="M2 18.75h2v2H2v-2Zm-2 0h2v2H0v-2Zm0-2h2v2H0v-2Zm0-2h2v2H0v-2Zm0-2h2v2H0v-2Zm0-2h2v2H0v-2Zm0-2h2v2H0v-2Zm0-2h2v2H0v-2Zm0-2h2v2H0v-2Zm2-2h2v2H2v-2Zm-2 0h2v2H0v-2Zm4 0h2v2H4v-2Zm2 0h2v2H6v-2Zm2 0h2v2H8v-2Zm2 0h2v2h-2v-2Zm2 0h2v2h-2v-2Zm2 0h2v2h-2v-2Zm2 0h2v2h-2v-2Zm2 0h2v2h-2v-2Zm2 0h2v2h-2v-2Zm2 0h2v2h-2v-2Zm-8 7.75h2v2h-2v-2Zm2-2h2v2h-2v-2Zm2-2h2v2h-2v-2Zm4-1.75h2v2h-2v-2Zm0 4h2v2h-2v-2Zm0-2h2v2h-2v-2Zm0 4h2v2h-2v-2Zm0 2h2v2h-2v-2Zm0 2h2v2h-2v-2Zm0 2h2v2h-2v-2Zm0 2h2v2h-2v-2Zm-18-12h2v2H4v-2ZM6 8.5h2v2H6v-2Zm2 2h2v2H8v-2Zm2 2h2v2h-2v-2Zm2 0h2v2h-2v-2Zm-8 6.25h2v2H4v-2Zm2 0h2v2H6v-2Zm2 0h2v2H8v-2Zm2 0h2v2h-2v-2Zm2 0h2v2h-2v-2Zm2 0h2v2h-2v-2Zm2 0h2v2h-2v-2Zm2 0h2v2h-2v-2Zm2 0h2v2h-2v-2Z"/>
</svg>
