<svg xmlns="http://www.w3.org/2000/svg" fill="none" viewBox="0 0 24 24">
  <path fill="currentColor" d="M22 10h2v2h-2v-2Zm-2-2h2v2h-2V8Zm-2 0h2v2h-2V8Zm-2-2h2v2h-2V6Zm-2 0h2v2h-2V6Zm-2-2h2v2h-2V4Zm-2 0h2v2h-2V4ZM6 2h2v2H6V2Zm2 0h2v2H8V2Zm14 10h2v2h-2v-2Zm-2 2h2v2h-2v-2Zm-2 0h2v2h-2v-2Zm-2 2h2v2h-2v-2Zm-2 0h2v2h-2v-2Zm-2 2h2v2h-2v-2Zm-2 0h2v2h-2v-2Zm-2 2h2v2H8v-2Zm-2 0h2v2H6v-2Zm-2 0h2v2H4v-2Zm0-2h2v2H4v-2Zm0-2h2v2H4v-2Zm0-2h2v2H4v-2Zm0-2h2v2H4v-2Zm0-2h2v2H4v-2Zm0-2h2v2H4V8Zm0-2h2v2H4V6Zm0-2h2v2H4V4Zm0-2h2v2H4V2Z"/>
</svg>
