<svg xmlns="http://www.w3.org/2000/svg" fill="none" viewBox="0 0 24 24">
  <path fill="currentColor" d="M6 22h2v2H6v-2Zm-2-2h2v2H4v-2Zm14 0h2v2h-2v-2ZM2 18h2v2H2v-2Zm18 0h2v2h-2v-2ZM2 16h2v2H2v-2Zm18 0h2v2h-2v-2ZM2 14h2v2H2v-2Zm18 0h2v2h-2v-2ZM2 12h2v2H2v-2Zm18 0h2v2h-2v-2ZM4 10h2v2H4v-2Zm0-2h2v2H4V8Zm0-2h2v2H4V6Zm2-2h2v2H6V4ZM4 4h2v2H4V4Zm14 0h2v2h-2V4ZM6 2h2v2H6V2Zm2-2h2v2H8V0Zm6 0h2v2h-2V0Zm2 2h2v2h-2V2Zm-6-2h2v2h-2V0Zm2 0h2v2h-2V0ZM8 4h2v2H8V4Zm3 3h2v2h-2V7Zm0 12h2v2h-2v-2Zm0-10h2v2h-2V9ZM9 9h2v2H9V9Zm0 2h2v2H9v-2Zm0 2h2v2H9v-2Zm2 0h2v2h-2v-2Zm2 0h2v2h-2v-2Zm0 2h2v2h-2v-2Zm0 2h2v2h-2v-2Zm-2 0h2v2h-2v-2Zm-2 0h2v2H9v-2Zm4-8h2v2h-2V9Zm-3-5h2v2h-2V4Zm2 0h2v2h-2V4Zm2 0h2v2h-2V4Zm2 0h2v2h-2V4Zm2 4h2v2h-2V8Zm0-2h2v2h-2V6Zm0 4h2v2h-2v-2ZM8 22h2v2H8v-2Zm2 0h2v2h-2v-2Zm2 0h2v2h-2v-2Zm2 0h2v2h-2v-2Zm2 0h2v2h-2v-2Z"/>
</svg>
