<svg xmlns="http://www.w3.org/2000/svg" fill="none" viewBox="0 0 24 24">
  <path fill="currentColor" d="M0 14h2v2H0v-2Zm2 2h2v2H2v-2Zm2 0h2v2H4v-2Zm2 0h2v2H6v-2Zm2 0h2v2H8v-2Zm2 2h2v2h-2v-2Zm4-6h2v2h-2v-2Zm4 0h2v2h-2v-2Zm0 2h2v2h-2v-2Zm4-2h2v2h-2v-2Zm0 2h2v2h-2v-2Zm0 2h2v2h-2v-2Zm-2 2h2v2h-2v-2Zm-2-8h2v2h-2v-2Zm0-2h2v2h-2V8Zm4 2h2v2h-2v-2Zm0-2h2v2h-2V8Zm0-2h2v2h-2V6Zm-2-2h2v2h-2V4Zm-6 10h2v2h-2v-2Zm0 2h2v2h-2v-2Zm0 2h2v2h-2v-2Zm0 2h2v2h-2v-2Zm-2 0h2v2h-2v-2Zm2-10h2v2h-2v-2ZM0 12h2v2H0v-2Zm0-2h2v2H0v-2Zm14-2h2v2h-2V8Zm0-2h2v2h-2V6ZM0 8h2v2H0V8Zm2-2h2v2H2V6Zm2 0h2v2H4V6Zm2 0h2v2H6V6Zm2 0h2v2H8V6Zm2-2h2v2h-2V4Zm4 0h2v2h-2V4Zm0-2h2v2h-2V2Zm-2 0h2v2h-2V2Z"/>
</svg>
