<svg xmlns="http://www.w3.org/2000/svg" fill="none" viewBox="0 0 24 24">
  <path fill="currentColor" d="M4 22h2v2H4v-2Zm-2-2h2v2H2v-2Zm18 0h2v2h-2v-2Zm2 0h2v2h-2v-2ZM0 18h2v2H0v-2Zm20 0h2v2h-2v-2Zm2 0h2v2h-2v-2Zm-2-2h2v2h-2v-2Zm2 0h2v2h-2v-2Zm-2-2h2v2h-2v-2Zm2 0h2v2h-2v-2Zm-2-2h2v2h-2v-2Zm2 0h2v2h-2v-2Zm-2-2h2v2h-2v-2Zm2 0h2v2h-2v-2Zm-2-2h2v2h-2V8Zm2 0h2v2h-2V8ZM0 8h2v2H0V8Zm2-2h2v2H2V6Zm2 0h2v2H4V6Zm2-2h2v2H6V4Zm0-2h2v2H6V2Zm2 0h2v2H8V2Zm2 0h2v2h-2V2Zm2 0h2v2h-2V2Zm2 0h2v2h-2V2Zm2 0h2v2h-2V2Zm0 2h2v2h-2V4ZM6 6h2v2H6V6Zm2 0h2v2H8V6Zm2 0h2v2h-2V6Zm2 0h2v2h-2V6Zm2 0h2v2h-2V6Zm2 0h2v2h-2V6Zm2 0h2v2h-2V6Zm2 0h2v2h-2V6ZM0 10h2v2H0v-2Zm2 0h2v2H2v-2Zm2 2h2v2H4v-2Zm2 2h2v2H6v-2Zm2 0h2v2H8v-2Zm4 0h2v2h-2v-2Zm2 0h2v2h-2v-2Zm2-2h2v2h-2v-2Z"/>
  <path fill="currentColor" d="M18.313 10h2v2h-2v-2ZM10 12h2v2h-2v-2Zm0 4h2v2h-2v-2ZM0 12h2v2H0v-2Zm0 2h2v2H0v-2Zm0 2h2v2H0v-2Zm6 6h2v2H6v-2Zm2 0h2v2H8v-2Zm2 0h2v2h-2v-2Zm2 0h2v2h-2v-2Zm2 0h2v2h-2v-2Zm2 0h2v2h-2v-2Zm2 0h2v2h-2v-2Zm2 0h2v2h-2v-2Z"/>
</svg>
