<svg xmlns="http://www.w3.org/2000/svg" fill="none" viewBox="0 0 24 24">
  <path fill="currentColor" d="M4 2h2v2H4V2Zm12 0h2v2h-2V2ZM6 2h2v2H6V2Zm2 0h2v2H8V2Zm10 0h2v2h-2V2Zm2 0h2v2h-2V2ZM8 4h2v2H8V4Zm12 0h2v2h-2V4ZM8 6h2v2H8V6Zm12 0h2v2h-2V6ZM8 8h2v2H8V8Zm12 0h2v2h-2V8ZM8 10h2v2H8v-2Zm12 0h2v2h-2v-2ZM8 12h2v2H8v-2Zm12 0h2v2h-2v-2ZM8 14h2v2H8v-2Zm12 0h2v2h-2v-2ZM8 16h2v2H8v-2Zm12 0h2v2h-2v-2ZM8 18h2v2H8v-2Zm12 0h2v2h-2v-2ZM6 20h2v2H6v-2Zm2 0h2v2H8v-2Zm10 0h2v2h-2v-2Zm2 0h2v2h-2v-2ZM4 20h2v2H4v-2Zm12 0h2v2h-2v-2ZM2 20h2v2H2v-2Zm12 0h2v2h-2v-2ZM2 18h2v2H2v-2Zm12 0h2v2h-2v-2ZM2 16h2v2H2v-2Zm12 0h2v2h-2v-2ZM2 14h2v2H2v-2Zm12 0h2v2h-2v-2ZM2 12h2v2H2v-2Zm12 0h2v2h-2v-2ZM2 10h2v2H2v-2Zm12 0h2v2h-2v-2ZM2 8h2v2H2V8Zm12 0h2v2h-2V8ZM2 6h2v2H2V6Zm12 0h2v2h-2V6ZM2 4h2v2H2V4Zm12 0h2v2h-2V4ZM2 2h2v2H2V2Zm12 0h2v2h-2V2Z"/>
</svg>
