<svg xmlns="http://www.w3.org/2000/svg" fill="none" viewBox="0 0 22 24">
  <path fill="currentColor" d="M8 18h2v2H8v-2Zm8 0h2v2h-2v-2Zm0-2h2v2h-2v-2Zm2 0h2v2h-2v-2Zm2 0h2v2h-2v-2Zm0-2h2v2h-2v-2Zm-2-2h2v2h-2v-2Zm-2 2h2v2h-2v-2Zm0-2h2v2h-2v-2Zm0-2h2v2h-2v-2Zm0-2h2v2h-2V8Zm0-2h2v2h-2V6Zm-2-2h2v2h-2V4Zm-2-2h2v2h-2V2ZM6 18h2v2H6v-2Zm8 0h2v2h-2v-2ZM4 18h2v2H4v-2Zm2 2h2v2H6v-2Zm2 2h2v2H8v-2Zm2-2h2v2h-2v-2Zm2 2h2v2h-2v-2Zm2-2h2v2h-2v-2Zm-2-2h2v2h-2v-2Zm-8-2h2v2H4v-2Zm0-2h2v2H4v-2Zm0-2h2v2H4v-2Zm0-2h2v2H4v-2Zm0-2h2v2H4V8Zm0-2h2v2H4V6Zm2-2h2v2H6V4Zm2-2h2v2H8V2Zm2-2h2v2h-2V0Zm0 2h2v2h-2V2Zm0 5h2v2h-2V7ZM8 9h2v2H8V9Zm2 2h2v2h-2v-2Zm2-2h2v2h-2V9ZM2 16h2v2H2v-2Zm-2 0h2v2H0v-2Zm0-2h2v2H0v-2Z"/>
  <path fill="currentColor" d="M2.313 12h2v2h-2v-2ZM10 18h2v2h-2v-2Z"/>
</svg>
