<svg xmlns="http://www.w3.org/2000/svg" fill="none" viewBox="0 0 24 24">
  <path fill="currentColor" d="M8 22h2v2H8zm4-20h-2V0h2zm0 2h-2V2h2zM4 18h2v2H4zm0-2h2v2H4zm0-2h2v2H4zm2 0h2v2H6zm2 0h2v2H8zm2 0h2v2h-2zm2 0h2v2h-2zm-8-2h2v2H4zm0-2h2v2H4zm0-2h2v2H4zm0-2h2v2H4zm0-2h2v2H4zm2 0h2v2H6zm2 0h2v2H8zm2 0h2v2h-2zm2 16h2v2h-2zm-2 2h2v2h-2zm0-20H8V0h2zm0 2H8V2h2zM6 20h2v2H6zm8-2h2v2h-2zm0-2h2v2h-2zm0-2h2v2h-2zm0-2h2v2h-2zm0-2h2v2h-2zm0-2h2v2h-2zm0-2h2v2h-2zm2 0h2v2h-2zm2 0h2v2h-2zm2 0h2v2h-2zm0 2h2v2h-2zm0 2h2v2h-2zm0 2h2v2h-2zm0-8h2v2h-2zm-6 0h2v2h-2zm-2 0h2v2h-2z"/>
</svg>
