<svg xmlns="http://www.w3.org/2000/svg" fill="none" viewBox="0 0 24 24">
  <path fill="currentColor" d="M22.543 7.064V9.91a9.905 9.905 0 0 1-6.076-2.065l.02 8.758a7.336 7.336 0 0 1-2.2 5.221 7.49 7.49 0 0 1-4.185 2.093c-.37.055-.748.083-1.13.083a7.515 7.515 0 0 1-5.314-2.176 7.341 7.341 0 0 1-2.187-5.72 7.351 7.351 0 0 1 1.855-4.434 7.514 7.514 0 0 1 5.646-2.525c.382 0 .76.029 1.13.084v3.978a3.55 3.55 0 0 0-4.673 3.42 3.547 3.547 0 0 0 1.734 2.988 3.562 3.562 0 0 0 2.939.323 3.547 3.547 0 0 0 2.437-3.365l.005-5.865V0h3.918a6.06 6.06 0 0 0 2.415 4.788 6.047 6.047 0 0 0 3.655 1.221h.01l.001 1.055Z"/>
</svg>
