<svg xmlns="http://www.w3.org/2000/svg" fill="none" viewBox="0 0 24 24">
  <path fill="currentColor" d="M17.647 0H6.353A6.353 6.353 0 0 0 0 6.353v11.294A6.353 6.353 0 0 0 6.353 24h11.294A6.353 6.353 0 0 0 24 17.647V6.353A6.353 6.353 0 0 0 17.647 0Zm4.941 17.647a4.941 4.941 0 0 1-4.94 4.941H6.352a4.941 4.941 0 0 1-4.941-4.94V6.352a4.941 4.941 0 0 1 4.94-4.941h11.295a4.941 4.941 0 0 1 4.941 4.94v11.295Z"/>
  <path fill="currentColor" d="M12 6.353a5.647 5.647 0 1 0 0 11.294 5.647 5.647 0 0 0 0-11.294Zm0 9.882a4.235 4.235 0 1 1 0-8.47 4.235 4.235 0 0 1 0 8.47Zm6.353-12a1.412 1.412 0 1 0 0 2.824 1.412 1.412 0 0 0 0-2.824Z"/>
</svg>
