<svg xmlns="http://www.w3.org/2000/svg" fill="none" viewBox="0 0 24 24">
  <path fill="currentColor" fill-rule="evenodd" d="m9.523 14.727 6.481-3.401-6.481-3.442v6.843ZM12 3c1.5 0 2.948.02 4.346.061 1.397.041 2.421.084 3.073.13l.978.054.228.02c.142.014.245.027.308.041.062.014.167.034.314.061.148.028.275.064.382.11.107.045.232.103.375.176s.281.161.415.265a3.196 3.196 0 0 1 .596.613c.085.113.214.378.388.795.175.418.293.876.355 1.374.072.58.128 1.2.168 1.858.04.657.064 1.172.073 1.544v2.394a29.247 29.247 0 0 1-.24 3.945c-.063.5-.175.95-.335 1.354-.161.404-.304.683-.43.837l-.187.231a3.2 3.2 0 0 1-.388.36 2.271 2.271 0 0 1-.415.26 9.402 9.402 0 0 1-.375.17 1.838 1.838 0 0 1-.382.108l-.321.061a8.096 8.096 0 0 1-.529.061c-2.241.173-5.04.259-8.397.259a242.97 242.97 0 0 1-4.814-.088 98.65 98.65 0 0 1-2.686-.103l-.656-.054-.482-.054a6.292 6.292 0 0 1-.73-.136 4.084 4.084 0 0 1-.683-.286 2.683 2.683 0 0 1-.756-.558 2.61 2.61 0 0 1-.208-.252c-.085-.113-.214-.378-.388-.796a5.245 5.245 0 0 1-.355-1.374 30.556 30.556 0 0 1-.168-1.857 44.397 44.397 0 0 1-.073-1.544v-2.394A29.19 29.19 0 0 1 .24 6.7c.063-.498.175-.95.336-1.353.16-.404.303-.683.428-.837l.188-.231c.125-.136.254-.256.388-.36.134-.105.272-.193.415-.266.143-.073.268-.131.375-.177.107-.045.234-.081.382-.109.147-.027.252-.047.314-.06.063-.014.166-.028.308-.042l.228-.02C5.844 3.082 8.643 3 12 3Z" clip-rule="evenodd"/>
</svg>
